<?xml version="1.0" encoding="UTF-8" standalone="no"?>
<svg
xmlns="http://www.w3.org/2000/svg"
version="1.0"
width="800" height="800"
id="10-ortho.svg">
<g style="stroke:#000000;stroke-width:2;stroke-opacity:1.0;">
<line x1="760.934" y1="400.000" x2="743.269" y2="511.535"/>
<line x1="760.934" y1="400.000" x2="56.731" y2="288.465"/>
<line x1="760.934" y1="400.000" x2="692.002" y2="612.152"/>
<line x1="760.934" y1="400.000" x2="107.998" y2="187.848"/>
<line x1="760.934" y1="400.000" x2="612.152" y2="692.002"/>
<line x1="760.934" y1="400.000" x2="187.848" y2="107.998"/>
<line x1="760.934" y1="400.000" x2="511.535" y2="743.269"/>
<line x1="760.934" y1="400.000" x2="288.465" y2="56.731"/>
<line x1="760.934" y1="400.000" x2="400.000" y2="760.934"/>
<line x1="760.934" y1="400.000" x2="400.000" y2="39.066"/>
<line x1="760.934" y1="400.000" x2="288.465" y2="743.269"/>
<line x1="760.934" y1="400.000" x2="511.535" y2="56.731"/>
<line x1="760.934" y1="400.000" x2="187.848" y2="692.002"/>
<line x1="760.934" y1="400.000" x2="612.152" y2="107.998"/>
<line x1="760.934" y1="400.000" x2="107.998" y2="612.152"/>
<line x1="760.934" y1="400.000" x2="692.002" y2="187.848"/>
<line x1="760.934" y1="400.000" x2="56.731" y2="511.535"/>
<line x1="760.934" y1="400.000" x2="743.269" y2="288.465"/>
<line x1="39.066" y1="400.000" x2="743.269" y2="511.535"/>
<line x1="39.066" y1="400.000" x2="56.731" y2="288.465"/>
<line x1="39.066" y1="400.000" x2="692.002" y2="612.152"/>
<line x1="39.066" y1="400.000" x2="107.998" y2="187.848"/>
<line x1="39.066" y1="400.000" x2="612.152" y2="692.002"/>
<line x1="39.066" y1="400.000" x2="187.848" y2="107.998"/>
<line x1="39.066" y1="400.000" x2="511.535" y2="743.269"/>
<line x1="39.066" y1="400.000" x2="288.465" y2="56.731"/>
<line x1="39.066" y1="400.000" x2="400.000" y2="760.934"/>
<line x1="39.066" y1="400.000" x2="400.000" y2="39.066"/>
<line x1="39.066" y1="400.000" x2="288.465" y2="743.269"/>
<line x1="39.066" y1="400.000" x2="511.535" y2="56.731"/>
<line x1="39.066" y1="400.000" x2="187.848" y2="692.002"/>
<line x1="39.066" y1="400.000" x2="612.152" y2="107.998"/>
<line x1="39.066" y1="400.000" x2="107.998" y2="612.152"/>
<line x1="39.066" y1="400.000" x2="692.002" y2="187.848"/>
<line x1="39.066" y1="400.000" x2="56.731" y2="511.535"/>
<line x1="39.066" y1="400.000" x2="743.269" y2="288.465"/>
<line x1="743.269" y1="511.535" x2="692.002" y2="612.152"/>
<line x1="743.269" y1="511.535" x2="107.998" y2="187.848"/>
<line x1="743.269" y1="511.535" x2="612.152" y2="692.002"/>
<line x1="743.269" y1="511.535" x2="187.848" y2="107.998"/>
<line x1="743.269" y1="511.535" x2="511.535" y2="743.269"/>
<line x1="743.269" y1="511.535" x2="288.465" y2="56.731"/>
<line x1="743.269" y1="511.535" x2="400.000" y2="760.934"/>
<line x1="743.269" y1="511.535" x2="400.000" y2="39.066"/>
<line x1="743.269" y1="511.535" x2="288.465" y2="743.269"/>
<line x1="743.269" y1="511.535" x2="511.535" y2="56.731"/>
<line x1="743.269" y1="511.535" x2="187.848" y2="692.002"/>
<line x1="743.269" y1="511.535" x2="612.152" y2="107.998"/>
<line x1="743.269" y1="511.535" x2="107.998" y2="612.152"/>
<line x1="743.269" y1="511.535" x2="692.002" y2="187.848"/>
<line x1="743.269" y1="511.535" x2="56.731" y2="511.535"/>
<line x1="743.269" y1="511.535" x2="743.269" y2="288.465"/>
<line x1="56.731" y1="288.465" x2="692.002" y2="612.152"/>
<line x1="56.731" y1="288.465" x2="107.998" y2="187.848"/>
<line x1="56.731" y1="288.465" x2="612.152" y2="692.002"/>
<line x1="56.731" y1="288.465" x2="187.848" y2="107.998"/>
<line x1="56.731" y1="288.465" x2="511.535" y2="743.269"/>
<line x1="56.731" y1="288.465" x2="288.465" y2="56.731"/>
<line x1="56.731" y1="288.465" x2="400.000" y2="760.934"/>
<line x1="56.731" y1="288.465" x2="400.000" y2="39.066"/>
<line x1="56.731" y1="288.465" x2="288.465" y2="743.269"/>
<line x1="56.731" y1="288.465" x2="511.535" y2="56.731"/>
<line x1="56.731" y1="288.465" x2="187.848" y2="692.002"/>
<line x1="56.731" y1="288.465" x2="612.152" y2="107.998"/>
<line x1="56.731" y1="288.465" x2="107.998" y2="612.152"/>
<line x1="56.731" y1="288.465" x2="692.002" y2="187.848"/>
<line x1="56.731" y1="288.465" x2="56.731" y2="511.535"/>
<line x1="56.731" y1="288.465" x2="743.269" y2="288.465"/>
<line x1="692.002" y1="612.152" x2="612.152" y2="692.002"/>
<line x1="692.002" y1="612.152" x2="187.848" y2="107.998"/>
<line x1="692.002" y1="612.152" x2="511.535" y2="743.269"/>
<line x1="692.002" y1="612.152" x2="288.465" y2="56.731"/>
<line x1="692.002" y1="612.152" x2="400.000" y2="760.934"/>
<line x1="692.002" y1="612.152" x2="400.000" y2="39.066"/>
<line x1="692.002" y1="612.152" x2="288.465" y2="743.269"/>
<line x1="692.002" y1="612.152" x2="511.535" y2="56.731"/>
<line x1="692.002" y1="612.152" x2="187.848" y2="692.002"/>
<line x1="692.002" y1="612.152" x2="612.152" y2="107.998"/>
<line x1="692.002" y1="612.152" x2="107.998" y2="612.152"/>
<line x1="692.002" y1="612.152" x2="692.002" y2="187.848"/>
<line x1="692.002" y1="612.152" x2="56.731" y2="511.535"/>
<line x1="692.002" y1="612.152" x2="743.269" y2="288.465"/>
<line x1="107.998" y1="187.848" x2="612.152" y2="692.002"/>
<line x1="107.998" y1="187.848" x2="187.848" y2="107.998"/>
<line x1="107.998" y1="187.848" x2="511.535" y2="743.269"/>
<line x1="107.998" y1="187.848" x2="288.465" y2="56.731"/>
<line x1="107.998" y1="187.848" x2="400.000" y2="760.934"/>
<line x1="107.998" y1="187.848" x2="400.000" y2="39.066"/>
<line x1="107.998" y1="187.848" x2="288.465" y2="743.269"/>
<line x1="107.998" y1="187.848" x2="511.535" y2="56.731"/>
<line x1="107.998" y1="187.848" x2="187.848" y2="692.002"/>
<line x1="107.998" y1="187.848" x2="612.152" y2="107.998"/>
<line x1="107.998" y1="187.848" x2="107.998" y2="612.152"/>
<line x1="107.998" y1="187.848" x2="692.002" y2="187.848"/>
<line x1="107.998" y1="187.848" x2="56.731" y2="511.535"/>
<line x1="107.998" y1="187.848" x2="743.269" y2="288.465"/>
<line x1="612.152" y1="692.002" x2="511.535" y2="743.269"/>
<line x1="612.152" y1="692.002" x2="288.465" y2="56.731"/>
<line x1="612.152" y1="692.002" x2="400.000" y2="760.934"/>
<line x1="612.152" y1="692.002" x2="400.000" y2="39.066"/>
<line x1="612.152" y1="692.002" x2="288.465" y2="743.269"/>
<line x1="612.152" y1="692.002" x2="511.535" y2="56.731"/>
<line x1="612.152" y1="692.002" x2="187.848" y2="692.002"/>
<line x1="612.152" y1="692.002" x2="612.152" y2="107.998"/>
<line x1="612.152" y1="692.002" x2="107.998" y2="612.152"/>
<line x1="612.152" y1="692.002" x2="692.002" y2="187.848"/>
<line x1="612.152" y1="692.002" x2="56.731" y2="511.535"/>
<line x1="612.152" y1="692.002" x2="743.269" y2="288.465"/>
<line x1="187.848" y1="107.998" x2="511.535" y2="743.269"/>
<line x1="187.848" y1="107.998" x2="288.465" y2="56.731"/>
<line x1="187.848" y1="107.998" x2="400.000" y2="760.934"/>
<line x1="187.848" y1="107.998" x2="400.000" y2="39.066"/>
<line x1="187.848" y1="107.998" x2="288.465" y2="743.269"/>
<line x1="187.848" y1="107.998" x2="511.535" y2="56.731"/>
<line x1="187.848" y1="107.998" x2="187.848" y2="692.002"/>
<line x1="187.848" y1="107.998" x2="612.152" y2="107.998"/>
<line x1="187.848" y1="107.998" x2="107.998" y2="612.152"/>
<line x1="187.848" y1="107.998" x2="692.002" y2="187.848"/>
<line x1="187.848" y1="107.998" x2="56.731" y2="511.535"/>
<line x1="187.848" y1="107.998" x2="743.269" y2="288.465"/>
<line x1="511.535" y1="743.269" x2="400.000" y2="760.934"/>
<line x1="511.535" y1="743.269" x2="400.000" y2="39.066"/>
<line x1="511.535" y1="743.269" x2="288.465" y2="743.269"/>
<line x1="511.535" y1="743.269" x2="511.535" y2="56.731"/>
<line x1="511.535" y1="743.269" x2="187.848" y2="692.002"/>
<line x1="511.535" y1="743.269" x2="612.152" y2="107.998"/>
<line x1="511.535" y1="743.269" x2="107.998" y2="612.152"/>
<line x1="511.535" y1="743.269" x2="692.002" y2="187.848"/>
<line x1="511.535" y1="743.269" x2="56.731" y2="511.535"/>
<line x1="511.535" y1="743.269" x2="743.269" y2="288.465"/>
<line x1="288.465" y1="56.731" x2="400.000" y2="760.934"/>
<line x1="288.465" y1="56.731" x2="400.000" y2="39.066"/>
<line x1="288.465" y1="56.731" x2="288.465" y2="743.269"/>
<line x1="288.465" y1="56.731" x2="511.535" y2="56.731"/>
<line x1="288.465" y1="56.731" x2="187.848" y2="692.002"/>
<line x1="288.465" y1="56.731" x2="612.152" y2="107.998"/>
<line x1="288.465" y1="56.731" x2="107.998" y2="612.152"/>
<line x1="288.465" y1="56.731" x2="692.002" y2="187.848"/>
<line x1="288.465" y1="56.731" x2="56.731" y2="511.535"/>
<line x1="288.465" y1="56.731" x2="743.269" y2="288.465"/>
<line x1="400.000" y1="760.934" x2="288.465" y2="743.269"/>
<line x1="400.000" y1="760.934" x2="511.535" y2="56.731"/>
<line x1="400.000" y1="760.934" x2="187.848" y2="692.002"/>
<line x1="400.000" y1="760.934" x2="612.152" y2="107.998"/>
<line x1="400.000" y1="760.934" x2="107.998" y2="612.152"/>
<line x1="400.000" y1="760.934" x2="692.002" y2="187.848"/>
<line x1="400.000" y1="760.934" x2="56.731" y2="511.535"/>
<line x1="400.000" y1="760.934" x2="743.269" y2="288.465"/>
<line x1="400.000" y1="39.066" x2="288.465" y2="743.269"/>
<line x1="400.000" y1="39.066" x2="511.535" y2="56.731"/>
<line x1="400.000" y1="39.066" x2="187.848" y2="692.002"/>
<line x1="400.000" y1="39.066" x2="612.152" y2="107.998"/>
<line x1="400.000" y1="39.066" x2="107.998" y2="612.152"/>
<line x1="400.000" y1="39.066" x2="692.002" y2="187.848"/>
<line x1="400.000" y1="39.066" x2="56.731" y2="511.535"/>
<line x1="400.000" y1="39.066" x2="743.269" y2="288.465"/>
<line x1="288.465" y1="743.269" x2="187.848" y2="692.002"/>
<line x1="288.465" y1="743.269" x2="612.152" y2="107.998"/>
<line x1="288.465" y1="743.269" x2="107.998" y2="612.152"/>
<line x1="288.465" y1="743.269" x2="692.002" y2="187.848"/>
<line x1="288.465" y1="743.269" x2="56.731" y2="511.535"/>
<line x1="288.465" y1="743.269" x2="743.269" y2="288.465"/>
<line x1="511.535" y1="56.731" x2="187.848" y2="692.002"/>
<line x1="511.535" y1="56.731" x2="612.152" y2="107.998"/>
<line x1="511.535" y1="56.731" x2="107.998" y2="612.152"/>
<line x1="511.535" y1="56.731" x2="692.002" y2="187.848"/>
<line x1="511.535" y1="56.731" x2="56.731" y2="511.535"/>
<line x1="511.535" y1="56.731" x2="743.269" y2="288.465"/>
<line x1="187.848" y1="692.002" x2="107.998" y2="612.152"/>
<line x1="187.848" y1="692.002" x2="692.002" y2="187.848"/>
<line x1="187.848" y1="692.002" x2="56.731" y2="511.535"/>
<line x1="187.848" y1="692.002" x2="743.269" y2="288.465"/>
<line x1="612.152" y1="107.998" x2="107.998" y2="612.152"/>
<line x1="612.152" y1="107.998" x2="692.002" y2="187.848"/>
<line x1="612.152" y1="107.998" x2="56.731" y2="511.535"/>
<line x1="612.152" y1="107.998" x2="743.269" y2="288.465"/>
<line x1="107.998" y1="612.152" x2="56.731" y2="511.535"/>
<line x1="107.998" y1="612.152" x2="743.269" y2="288.465"/>
<line x1="692.002" y1="187.848" x2="56.731" y2="511.535"/>
<line x1="692.002" y1="187.848" x2="743.269" y2="288.465"/>
</g>
<g style="stroke:#000000;stroke-width:2;fill:#ff0000">
<circle cx="760.934" cy="400.000" r="8"/>
<circle cx="39.066" cy="400.000" r="8"/>
<circle cx="743.269" cy="511.535" r="8"/>
<circle cx="56.731" cy="288.465" r="8"/>
<circle cx="692.002" cy="612.152" r="8"/>
<circle cx="107.998" cy="187.848" r="8"/>
<circle cx="612.152" cy="692.002" r="8"/>
<circle cx="187.848" cy="107.998" r="8"/>
<circle cx="511.535" cy="743.269" r="8"/>
<circle cx="288.465" cy="56.731" r="8"/>
<circle cx="400.000" cy="760.934" r="8"/>
<circle cx="400.000" cy="39.066" r="8"/>
<circle cx="288.465" cy="743.269" r="8"/>
<circle cx="511.535" cy="56.731" r="8"/>
<circle cx="187.848" cy="692.002" r="8"/>
<circle cx="612.152" cy="107.998" r="8"/>
<circle cx="107.998" cy="612.152" r="8"/>
<circle cx="692.002" cy="187.848" r="8"/>
<circle cx="56.731" cy="511.535" r="8"/>
<circle cx="743.269" cy="288.465" r="8"/>
</g>
</svg>
