<?xml version="1.0" encoding="UTF-8" standalone="no"?>
<svg
xmlns="http://www.w3.org/2000/svg"
version="1.0"
width="800" height="800"
id="0-ortho.svg">
<g style="stroke:#000000;stroke-width:2;stroke-opacity:1.0;">
<line x1="532.111" y1="267.889" x2="351.644" y2="580.467"/>
<line x1="532.111" y1="267.889" x2="712.578" y2="219.533"/>
<line x1="532.111" y1="267.889" x2="351.644" y2="219.533"/>
<line x1="532.111" y1="267.889" x2="712.578" y2="580.467"/>
<line x1="532.111" y1="267.889" x2="219.533" y2="448.356"/>
<line x1="532.111" y1="267.889" x2="580.467" y2="87.422"/>
<line x1="532.111" y1="267.889" x2="219.533" y2="87.422"/>
<line x1="532.111" y1="267.889" x2="580.467" y2="448.356"/>
<line x1="532.111" y1="532.111" x2="351.644" y2="580.467"/>
<line x1="532.111" y1="532.111" x2="712.578" y2="219.533"/>
<line x1="532.111" y1="532.111" x2="351.644" y2="219.533"/>
<line x1="532.111" y1="532.111" x2="712.578" y2="580.467"/>
<line x1="532.111" y1="532.111" x2="219.533" y2="712.578"/>
<line x1="532.111" y1="532.111" x2="580.467" y2="351.644"/>
<line x1="532.111" y1="532.111" x2="219.533" y2="351.644"/>
<line x1="532.111" y1="532.111" x2="580.467" y2="712.578"/>
<line x1="351.644" y1="580.467" x2="351.644" y2="219.533"/>
<line x1="351.644" y1="580.467" x2="712.578" y2="580.467"/>
<line x1="351.644" y1="580.467" x2="219.533" y2="448.356"/>
<line x1="351.644" y1="580.467" x2="219.533" y2="712.578"/>
<line x1="351.644" y1="580.467" x2="39.066" y2="400.000"/>
<line x1="351.644" y1="580.467" x2="400.000" y2="760.934"/>
<line x1="712.578" y1="219.533" x2="351.644" y2="219.533"/>
<line x1="712.578" y1="219.533" x2="712.578" y2="580.467"/>
<line x1="712.578" y1="219.533" x2="580.467" y2="87.422"/>
<line x1="712.578" y1="219.533" x2="580.467" y2="351.644"/>
<line x1="712.578" y1="219.533" x2="400.000" y2="39.066"/>
<line x1="712.578" y1="219.533" x2="760.934" y2="400.000"/>
<line x1="351.644" y1="219.533" x2="219.533" y2="87.422"/>
<line x1="351.644" y1="219.533" x2="219.533" y2="351.644"/>
<line x1="351.644" y1="219.533" x2="39.066" y2="400.000"/>
<line x1="351.644" y1="219.533" x2="400.000" y2="39.066"/>
<line x1="712.578" y1="580.467" x2="580.467" y2="448.356"/>
<line x1="712.578" y1="580.467" x2="580.467" y2="712.578"/>
<line x1="712.578" y1="580.467" x2="400.000" y2="760.934"/>
<line x1="712.578" y1="580.467" x2="760.934" y2="400.000"/>
<line x1="267.889" y1="267.889" x2="87.422" y2="580.467"/>
<line x1="267.889" y1="267.889" x2="448.356" y2="219.533"/>
<line x1="267.889" y1="267.889" x2="87.422" y2="219.533"/>
<line x1="267.889" y1="267.889" x2="448.356" y2="580.467"/>
<line x1="267.889" y1="267.889" x2="219.533" y2="448.356"/>
<line x1="267.889" y1="267.889" x2="580.467" y2="87.422"/>
<line x1="267.889" y1="267.889" x2="219.533" y2="87.422"/>
<line x1="267.889" y1="267.889" x2="580.467" y2="448.356"/>
<line x1="267.889" y1="532.111" x2="87.422" y2="580.467"/>
<line x1="267.889" y1="532.111" x2="448.356" y2="219.533"/>
<line x1="267.889" y1="532.111" x2="87.422" y2="219.533"/>
<line x1="267.889" y1="532.111" x2="448.356" y2="580.467"/>
<line x1="267.889" y1="532.111" x2="219.533" y2="712.578"/>
<line x1="267.889" y1="532.111" x2="580.467" y2="351.644"/>
<line x1="267.889" y1="532.111" x2="219.533" y2="351.644"/>
<line x1="267.889" y1="532.111" x2="580.467" y2="712.578"/>
<line x1="87.422" y1="580.467" x2="87.422" y2="219.533"/>
<line x1="87.422" y1="580.467" x2="448.356" y2="580.467"/>
<line x1="87.422" y1="580.467" x2="219.533" y2="448.356"/>
<line x1="87.422" y1="580.467" x2="219.533" y2="712.578"/>
<line x1="87.422" y1="580.467" x2="39.066" y2="400.000"/>
<line x1="87.422" y1="580.467" x2="400.000" y2="760.934"/>
<line x1="448.356" y1="219.533" x2="87.422" y2="219.533"/>
<line x1="448.356" y1="219.533" x2="448.356" y2="580.467"/>
<line x1="448.356" y1="219.533" x2="580.467" y2="87.422"/>
<line x1="448.356" y1="219.533" x2="580.467" y2="351.644"/>
<line x1="448.356" y1="219.533" x2="400.000" y2="39.066"/>
<line x1="448.356" y1="219.533" x2="760.934" y2="400.000"/>
<line x1="87.422" y1="219.533" x2="219.533" y2="87.422"/>
<line x1="87.422" y1="219.533" x2="219.533" y2="351.644"/>
<line x1="87.422" y1="219.533" x2="39.066" y2="400.000"/>
<line x1="87.422" y1="219.533" x2="400.000" y2="39.066"/>
<line x1="448.356" y1="580.467" x2="580.467" y2="448.356"/>
<line x1="448.356" y1="580.467" x2="580.467" y2="712.578"/>
<line x1="448.356" y1="580.467" x2="400.000" y2="760.934"/>
<line x1="448.356" y1="580.467" x2="760.934" y2="400.000"/>
<line x1="219.533" y1="448.356" x2="219.533" y2="87.422"/>
<line x1="219.533" y1="448.356" x2="580.467" y2="448.356"/>
<line x1="219.533" y1="448.356" x2="39.066" y2="400.000"/>
<line x1="219.533" y1="448.356" x2="400.000" y2="760.934"/>
<line x1="580.467" y1="87.422" x2="219.533" y2="87.422"/>
<line x1="580.467" y1="87.422" x2="580.467" y2="448.356"/>
<line x1="580.467" y1="87.422" x2="400.000" y2="39.066"/>
<line x1="580.467" y1="87.422" x2="760.934" y2="400.000"/>
<line x1="219.533" y1="87.422" x2="39.066" y2="400.000"/>
<line x1="219.533" y1="87.422" x2="400.000" y2="39.066"/>
<line x1="580.467" y1="448.356" x2="400.000" y2="760.934"/>
<line x1="580.467" y1="448.356" x2="760.934" y2="400.000"/>
<line x1="219.533" y1="712.578" x2="219.533" y2="351.644"/>
<line x1="219.533" y1="712.578" x2="580.467" y2="712.578"/>
<line x1="219.533" y1="712.578" x2="39.066" y2="400.000"/>
<line x1="219.533" y1="712.578" x2="400.000" y2="760.934"/>
<line x1="580.467" y1="351.644" x2="219.533" y2="351.644"/>
<line x1="580.467" y1="351.644" x2="580.467" y2="712.578"/>
<line x1="580.467" y1="351.644" x2="400.000" y2="39.066"/>
<line x1="580.467" y1="351.644" x2="760.934" y2="400.000"/>
<line x1="219.533" y1="351.644" x2="39.066" y2="400.000"/>
<line x1="219.533" y1="351.644" x2="400.000" y2="39.066"/>
<line x1="580.467" y1="712.578" x2="400.000" y2="760.934"/>
<line x1="580.467" y1="712.578" x2="760.934" y2="400.000"/>
</g>
<g style="stroke:#000000;stroke-width:2;fill:#ff0000">
<circle cx="532.111" cy="267.889" r="8"/>
<circle cx="532.111" cy="532.111" r="8"/>
<circle cx="351.644" cy="580.467" r="8"/>
<circle cx="712.578" cy="219.533" r="8"/>
<circle cx="351.644" cy="219.533" r="8"/>
<circle cx="712.578" cy="580.467" r="8"/>
<circle cx="267.889" cy="267.889" r="8"/>
<circle cx="267.889" cy="532.111" r="8"/>
<circle cx="87.422" cy="580.467" r="8"/>
<circle cx="448.356" cy="219.533" r="8"/>
<circle cx="87.422" cy="219.533" r="8"/>
<circle cx="448.356" cy="580.467" r="8"/>
<circle cx="219.533" cy="448.356" r="8"/>
<circle cx="580.467" cy="87.422" r="8"/>
<circle cx="219.533" cy="87.422" r="8"/>
<circle cx="580.467" cy="448.356" r="8"/>
<circle cx="219.533" cy="712.578" r="8"/>
<circle cx="580.467" cy="351.644" r="8"/>
<circle cx="219.533" cy="351.644" r="8"/>
<circle cx="580.467" cy="712.578" r="8"/>
<circle cx="39.066" cy="400.000" r="8"/>
<circle cx="400.000" cy="760.934" r="8"/>
<circle cx="400.000" cy="39.066" r="8"/>
<circle cx="760.934" cy="400.000" r="8"/>
</g>
</svg>
