<?xml version="1.0" encoding="UTF-8" standalone="no"?>
<svg xmlns="http://www.w3.org/2000/svg" version="1.0" width="995.73413" height="1000.0" id="c:\regular_star_polygon_17-8.svg">
<!-- X Coordinate transform: fx(x)=(x+1.0821217)*456.49277-->
<!-- Y Coordinate transform: fy(y)=(1.0953076-y)*456.49277 -->
<g style="stroke:#000000;stroke-width:4.9786706;stroke-opacity:1.00;fill-opacity:00">
<!-- Group: <Default>-->
</g>
<g style="stroke:#000000;stroke-width:4.9786706;stroke-opacity:1.00;fill-opacity:00">
<!-- Group: poly-->
<path d="M 950.474,500 45.261,416.12" />
<path d="M 45.261,416.12 919.648,664.904" />
<path d="M 919.648,664.904 105.863,259.688" />
<path d="M 105.863,259.688 831.333,807.537" />
<path d="M 218.882,135.711 831.333,807.537" />
<path d="M 697.457,908.636 218.882,135.711" />
<path d="M 369.056,60.934 697.457,908.636" />
<path d="M 536.101,954.545 369.056,60.934" />
<path d="M 536.101,954.545 536.101,45.455" />
<path d="M 536.101,45.455 369.056,939.066" />
<path d="M 369.056,939.066 697.457,91.364" />
<path d="M 697.457,91.364 218.882,864.289" />
<path d="M 218.882,864.289 831.333,192.463" />
<path d="M 105.863,740.312 831.333,192.463" />
<path d="M 919.648,335.096 105.863,740.312" />
<path d="M 45.261,583.88 919.648,335.096" />
<path d="M 950.474,500 45.261,583.88" />
</g>
<g style="stroke:#000000;stroke-width:0.66382277;fill:#ff007f">
<circle cx="950.474" cy="500" r="7.9658732"/>
<circle cx="45.261" cy="416.12" r="7.9658732"/>
<circle cx="45.261" cy="416.12" r="7.9658732"/>
<circle cx="919.648" cy="664.904" r="7.9658732"/>
<circle cx="919.648" cy="664.904" r="7.9658732"/>
<circle cx="105.863" cy="259.688" r="7.9658732"/>
<circle cx="105.863" cy="259.688" r="7.9658732"/>
<circle cx="831.333" cy="807.537" r="7.9658732"/>
<circle cx="831.333" cy="807.537" r="7.9658732"/>
<circle cx="218.882" cy="135.711" r="7.9658732"/>
<circle cx="218.882" cy="135.711" r="7.9658732"/>
<circle cx="697.457" cy="908.636" r="7.9658732"/>
<circle cx="697.457" cy="908.636" r="7.9658732"/>
<circle cx="369.056" cy="60.934" r="7.9658732"/>
<circle cx="369.056" cy="60.934" r="7.9658732"/>
<circle cx="536.101" cy="954.545" r="7.9658732"/>
<circle cx="536.101" cy="954.545" r="7.9658732"/>
<circle cx="536.101" cy="45.455" r="7.9658732"/>
<circle cx="536.101" cy="45.455" r="7.9658732"/>
<circle cx="369.056" cy="939.066" r="7.9658732"/>
<circle cx="369.056" cy="939.066" r="7.9658732"/>
<circle cx="697.457" cy="91.364" r="7.9658732"/>
<circle cx="697.457" cy="91.364" r="7.9658732"/>
<circle cx="218.882" cy="864.289" r="7.9658732"/>
<circle cx="218.882" cy="864.289" r="7.9658732"/>
<circle cx="831.333" cy="192.463" r="7.9658732"/>
<circle cx="831.333" cy="192.463" r="7.9658732"/>
<circle cx="105.863" cy="740.312" r="7.9658732"/>
<circle cx="105.863" cy="740.312" r="7.9658732"/>
<circle cx="919.648" cy="335.096" r="7.9658732"/>
<circle cx="919.648" cy="335.096" r="7.9658732"/>
<circle cx="45.261" cy="583.88" r="7.9658732"/>
<circle cx="45.261" cy="583.88" r="7.9658732"/>
<circle cx="950.474" cy="500" r="7.9658732"/>
</g>
</svg>
