<?xml version="1.0" encoding="UTF-8" standalone="no"?>
<svg xmlns="http://www.w3.org/2000/svg" version="1.0" width="1000.0" height="1000.0" id="c:\regular_star_polygon_16-5.svg">
<!-- X Coordinate transform: fx(x)=(x+1.1)*454.54544-->
<!-- Y Coordinate transform: fy(y)=(1.1-y)*454.54544 -->
<g style="stroke:#000000;stroke-width:5.0;stroke-opacity:1.00;fill-opacity:00">
<!-- Group: <Default>-->
</g>
<g style="stroke:#000000;stroke-width:5.0;stroke-opacity:1.00;fill-opacity:00">
<!-- Group: poly-->
<path d="M 954.545,500 326.053,80.055" />
<path d="M 326.053,80.055 178.588,821.412" />
<path d="M 919.945,673.947 178.588,821.412" />
<path d="M 500,45.455 919.945,673.947" />
<path d="M 500,45.455 80.055,673.947" />
<path d="M 80.055,673.947 821.412,821.412" />
<path d="M 673.947,80.055 821.412,821.412" />
<path d="M 45.455,500 673.947,80.055" />
<path d="M 45.455,500 673.947,919.945" />
<path d="M 673.947,919.945 821.412,178.588" />
<path d="M 80.055,326.053 821.412,178.588" />
<path d="M 500,954.545 80.055,326.053" />
<path d="M 500,954.545 919.945,326.053" />
<path d="M 919.945,326.053 178.588,178.588" />
<path d="M 326.053,919.945 178.588,178.588" />
<path d="M 954.545,500 326.053,919.945" />
</g>
<g style="stroke:#000000;stroke-width:0.6666667;fill:#ff007f">
<circle cx="954.545" cy="500" r="8.0"/>
<circle cx="326.053" cy="80.055" r="8.0"/>
<circle cx="326.053" cy="80.055" r="8.0"/>
<circle cx="178.588" cy="821.412" r="8.0"/>
<circle cx="178.588" cy="821.412" r="8.0"/>
<circle cx="919.945" cy="673.947" r="8.0"/>
<circle cx="919.945" cy="673.947" r="8.0"/>
<circle cx="500" cy="45.455" r="8.0"/>
<circle cx="500" cy="45.455" r="8.0"/>
<circle cx="80.055" cy="673.947" r="8.0"/>
<circle cx="80.055" cy="673.947" r="8.0"/>
<circle cx="821.412" cy="821.412" r="8.0"/>
<circle cx="821.412" cy="821.412" r="8.0"/>
<circle cx="673.947" cy="80.055" r="8.0"/>
<circle cx="673.947" cy="80.055" r="8.0"/>
<circle cx="45.455" cy="500" r="8.0"/>
<circle cx="45.455" cy="500" r="8.0"/>
<circle cx="673.947" cy="919.945" r="8.0"/>
<circle cx="673.947" cy="919.945" r="8.0"/>
<circle cx="821.412" cy="178.588" r="8.0"/>
<circle cx="821.412" cy="178.588" r="8.0"/>
<circle cx="80.055" cy="326.053" r="8.0"/>
<circle cx="80.055" cy="326.053" r="8.0"/>
<circle cx="500" cy="954.545" r="8.0"/>
<circle cx="500" cy="954.545" r="8.0"/>
<circle cx="919.945" cy="326.053" r="8.0"/>
<circle cx="919.945" cy="326.053" r="8.0"/>
<circle cx="178.588" cy="178.588" r="8.0"/>
<circle cx="178.588" cy="178.588" r="8.0"/>
<circle cx="326.053" cy="919.945" r="8.0"/>
<circle cx="326.053" cy="919.945" r="8.0"/>
<circle cx="954.545" cy="500" r="8.0"/>
</g>
</svg>
