<?xml version="1.0" encoding="utf-8" standalone="no"?>
<!DOCTYPE svg PUBLIC "-//W3C//DTD SVG 1.1//EN" "http://www.w3.org/Graphics/SVG/1.1/DTD/svg11.dtd">
<svg xmlns:xlink="http://www.w3.org/1999/xlink" width="720pt" height="576pt" viewBox="0 0 720 576" xmlns="http://www.w3.org/2000/svg" version="1.1">
  <metadata>
    <rdf:RDF xmlns:dc="http://purl.org/dc/elements/1.1/" xmlns:cc="http://creativecommons.org/ns#" xmlns:rdf="http://www.w3.org/1999/02/22-rdf-syntax-ns#">
      <cc:Work>
        <dc:type rdf:resource="http://purl.org/dc/dcmitype/StillImage" />
        <dc:date>2025-05-15T00:37:48.941811</dc:date>
        <dc:format>image/svg+xml</dc:format>
        <dc:creator>
          <cc:Agent>
            <dc:title>Matplotlib v3.6.3, https://matplotlib.org/</dc:title>
          </cc:Agent>
        </dc:creator>
      </cc:Work>
    </rdf:RDF>
  </metadata>
  <defs>
    <style type="text/css">
      * {
        stroke-linejoin: round;
        stroke-linecap: butt
      }
    </style>
  </defs>
  <g id="figure_1">
    <g id="patch_1">
      <path d="M 0 576 
L 720 576 
L 720 0 
L 0 0 
z
" style="fill: #ffffff" />
    </g>
    <g id="axes_1">
      <g id="patch_2">
        <path d="M 339.185616 332.571233 
Q 416.138454 380.776427 492.143809 428.388092 
" clip-path="url(#p56b26ccaac)" style="fill: none; stroke: #000000; stroke-linecap: round" />
        <path d="M 488.65168 422.660524 
L 492.143809 428.388092 
L 485.466477 427.745255 
" clip-path="url(#p56b26ccaac)" style="fill: none; stroke: #000000; stroke-linecap: round" />
      </g>
      <g id="patch_3">
        <path d="M 325.681844 334.061121 
Q 238.712827 419.93669 152.539366 505.026706 
" clip-path="url(#p56b26ccaac)" style="fill: none; stroke: #000000; stroke-linecap: round" />
        <path d="M 158.916619 502.945687 
L 152.539366 505.026706 
L 154.700903 498.676292 
" clip-path="url(#p56b26ccaac)" style="fill: none; stroke: #000000; stroke-linecap: round" />
      </g>
      <g id="patch_4">
        <path d="M 491.975788 435.445287 
Q 323.004906 472.739083 155.125783 509.791915 
" clip-path="url(#p56b26ccaac)" style="fill: none; stroke: #000000; stroke-linecap: round" />
        <path d="M 161.631347 511.428264 
L 155.125783 509.791915 
L 160.338201 505.569274 
" clip-path="url(#p56b26ccaac)" style="fill: none; stroke: #000000; stroke-linecap: round" />
      </g>
      <g id="patch_5">
        <path d="M 75.436492 378.525165 
Q 108.492736 441.379869 141.02857 503.24504 
" clip-path="url(#p56b26ccaac)" style="fill: none; stroke: #000000; stroke-linecap: round" />
        <path d="M 140.89095 496.538248 
L 141.02857 503.24504 
L 135.580564 499.331061 
" clip-path="url(#p56b26ccaac)" style="fill: none; stroke: #000000; stroke-linecap: round" />
      </g>
      <g id="patch_6">
        <path d="M 79.953084 369.451843 
Q 201.627687 349.416335 322.199112 329.562482 
" clip-path="url(#p56b26ccaac)" style="fill: none; stroke: #000000; stroke-linecap: round" />
        <path d="M 315.791407 327.577204 
L 322.199112 329.562482 
L 316.766267 333.497479 
" clip-path="url(#p56b26ccaac)" style="fill: none; stroke: #000000; stroke-linecap: round" />
      </g>
      <g id="patch_7">
        <path d="M 560.278781 272.583776 
Q 531.863809 349.021963 503.838406 424.412182 
" clip-path="url(#p56b26ccaac)" style="fill: none; stroke: #000000; stroke-linecap: round" />
        <path d="M 508.741046 419.833522 
L 503.838406 424.412182 
L 503.117062 417.742874 
" clip-path="url(#p56b26ccaac)" style="fill: none; stroke: #000000; stroke-linecap: round" />
      </g>
      <g id="patch_8">
        <path d="M 554.94329 266.76006 
Q 447.570173 296.221361 341.275241 325.386826 
" clip-path="url(#p56b26ccaac)" style="fill: none; stroke: #000000; stroke-linecap: round" />
        <path d="M 347.855195 326.692282 
L 341.275241 325.386826 
L 346.267578 320.906137 
" clip-path="url(#p56b26ccaac)" style="fill: none; stroke: #000000; stroke-linecap: round" />
      </g>
      <g id="patch_9">
        <path d="M 639.958117 351.369573 
Q 490.220597 339.999623 341.597903 328.714325 
" clip-path="url(#p56b26ccaac)" style="fill: none; stroke: #000000; stroke-linecap: round" />
        <path d="M 347.353536 332.160001 
L 341.597903 328.714325 
L 347.807824 326.177224 
" clip-path="url(#p56b26ccaac)" style="fill: none; stroke: #000000; stroke-linecap: round" />
      </g>
      <g id="patch_10">
        <path d="M 641.010028 356.200399 
Q 574.514983 392.801127 508.999401 428.862732 
" clip-path="url(#p56b26ccaac)" style="fill: none; stroke: #000000; stroke-linecap: round" />
        <path d="M 515.702366 428.597666 
L 508.999401 428.862732 
L 512.809127 423.341321 
" clip-path="url(#p56b26ccaac)" style="fill: none; stroke: #000000; stroke-linecap: round" />
      </g>
      <g id="patch_11">
        <path d="M 575.752085 521.102175 
Q 540.915245 480.621996 506.807695 440.989247 
" clip-path="url(#p56b26ccaac)" style="fill: none; stroke: #000000; stroke-linecap: round" />
        <path d="M 508.447581 447.49392 
L 506.807695 440.989247 
L 512.995365 443.580142 
" clip-path="url(#p56b26ccaac)" style="fill: none; stroke: #000000; stroke-linecap: round" />
      </g>
      <g id="patch_12">
        <path d="M 332.129186 379.623433 
Q 332.011579 358.128532 331.900088 337.751648 
" clip-path="url(#p56b26ccaac)" style="fill: none; stroke: #000000; stroke-linecap: round" />
        <path d="M 328.932961 343.767972 
L 331.900088 337.751648 
L 334.932871 343.735144 
" clip-path="url(#p56b26ccaac)" style="fill: none; stroke: #000000; stroke-linecap: round" />
      </g>
      <g id="patch_13">
        <path d="M 323.53804 387.707811 
Q 201.79388 379.572451 81.165265 371.511635 
" clip-path="url(#p56b26ccaac)" style="fill: none; stroke: #000000; stroke-linecap: round" />
        <path d="M 86.95189 374.905007 
L 81.165265 371.511635 
L 87.351938 368.918359 
" clip-path="url(#p56b26ccaac)" style="fill: none; stroke: #000000; stroke-linecap: round" />
      </g>
      <g id="patch_14">
        <path d="M 340.785192 387.298572 
Q 490.390191 370.15473 638.884426 353.138175 
" clip-path="url(#p56b26ccaac)" style="fill: none; stroke: #000000; stroke-linecap: round" />
        <path d="M 632.58189 350.840774 
L 638.884426 353.138175 
L 633.264984 356.801763 
" clip-path="url(#p56b26ccaac)" style="fill: none; stroke: #000000; stroke-linecap: round" />
      </g>
      <g id="text_1">
        <g id="patch_15">
          <path d="M 385.721146 368.523371 
L 439.731176 403.552749 
Q 441.744753 404.858699 443.050703 402.845121 
L 447.263751 396.349235 
Q 448.569701 394.335658 446.556123 393.029708 
L 392.546093 358.00033 
Q 390.532516 356.69438 389.226566 358.707958 
L 385.013518 365.203844 
Q 383.707568 367.217421 385.721146 368.523371 
z
" clip-path="url(#p56b26ccaac)" style="fill: #ffffff; stroke: #ffffff; stroke-linejoin: miter" />
        </g>
        <g clip-path="url(#p56b26ccaac)">
          <!-- creative tension -->
          <g transform="translate(387.932418 365.113922) rotate(-327.033698) scale(0.08 -0.08)">
            <defs>
              <path id="DejaVuSans-63" d="M 3122 3366 
L 3122 2828 
Q 2878 2963 2633 3030 
Q 2388 3097 2138 3097 
Q 1578 3097 1268 2742 
Q 959 2388 959 1747 
Q 959 1106 1268 751 
Q 1578 397 2138 397 
Q 2388 397 2633 464 
Q 2878 531 3122 666 
L 3122 134 
Q 2881 22 2623 -34 
Q 2366 -91 2075 -91 
Q 1284 -91 818 406 
Q 353 903 353 1747 
Q 353 2603 823 3093 
Q 1294 3584 2113 3584 
Q 2378 3584 2631 3529 
Q 2884 3475 3122 3366 
z
" transform="scale(0.015625)" />
              <path id="DejaVuSans-72" d="M 2631 2963 
Q 2534 3019 2420 3045 
Q 2306 3072 2169 3072 
Q 1681 3072 1420 2755 
Q 1159 2438 1159 1844 
L 1159 0 
L 581 0 
L 581 3500 
L 1159 3500 
L 1159 2956 
Q 1341 3275 1631 3429 
Q 1922 3584 2338 3584 
Q 2397 3584 2469 3576 
Q 2541 3569 2628 3553 
L 2631 2963 
z
" transform="scale(0.015625)" />
              <path id="DejaVuSans-65" d="M 3597 1894 
L 3597 1613 
L 953 1613 
Q 991 1019 1311 708 
Q 1631 397 2203 397 
Q 2534 397 2845 478 
Q 3156 559 3463 722 
L 3463 178 
Q 3153 47 2828 -22 
Q 2503 -91 2169 -91 
Q 1331 -91 842 396 
Q 353 884 353 1716 
Q 353 2575 817 3079 
Q 1281 3584 2069 3584 
Q 2775 3584 3186 3129 
Q 3597 2675 3597 1894 
z
M 3022 2063 
Q 3016 2534 2758 2815 
Q 2500 3097 2075 3097 
Q 1594 3097 1305 2825 
Q 1016 2553 972 2059 
L 3022 2063 
z
" transform="scale(0.015625)" />
              <path id="DejaVuSans-61" d="M 2194 1759 
Q 1497 1759 1228 1600 
Q 959 1441 959 1056 
Q 959 750 1161 570 
Q 1363 391 1709 391 
Q 2188 391 2477 730 
Q 2766 1069 2766 1631 
L 2766 1759 
L 2194 1759 
z
M 3341 1997 
L 3341 0 
L 2766 0 
L 2766 531 
Q 2569 213 2275 61 
Q 1981 -91 1556 -91 
Q 1019 -91 701 211 
Q 384 513 384 1019 
Q 384 1609 779 1909 
Q 1175 2209 1959 2209 
L 2766 2209 
L 2766 2266 
Q 2766 2663 2505 2880 
Q 2244 3097 1772 3097 
Q 1472 3097 1187 3025 
Q 903 2953 641 2809 
L 641 3341 
Q 956 3463 1253 3523 
Q 1550 3584 1831 3584 
Q 2591 3584 2966 3190 
Q 3341 2797 3341 1997 
z
" transform="scale(0.015625)" />
              <path id="DejaVuSans-74" d="M 1172 4494 
L 1172 3500 
L 2356 3500 
L 2356 3053 
L 1172 3053 
L 1172 1153 
Q 1172 725 1289 603 
Q 1406 481 1766 481 
L 2356 481 
L 2356 0 
L 1766 0 
Q 1100 0 847 248 
Q 594 497 594 1153 
L 594 3053 
L 172 3053 
L 172 3500 
L 594 3500 
L 594 4494 
L 1172 4494 
z
" transform="scale(0.015625)" />
              <path id="DejaVuSans-69" d="M 603 3500 
L 1178 3500 
L 1178 0 
L 603 0 
L 603 3500 
z
M 603 4863 
L 1178 4863 
L 1178 4134 
L 603 4134 
L 603 4863 
z
" transform="scale(0.015625)" />
              <path id="DejaVuSans-76" d="M 191 3500 
L 800 3500 
L 1894 563 
L 2988 3500 
L 3597 3500 
L 2284 0 
L 1503 0 
L 191 3500 
z
" transform="scale(0.015625)" />
              <path id="DejaVuSans-20" transform="scale(0.015625)" />
              <path id="DejaVuSans-6e" d="M 3513 2113 
L 3513 0 
L 2938 0 
L 2938 2094 
Q 2938 2591 2744 2837 
Q 2550 3084 2163 3084 
Q 1697 3084 1428 2787 
Q 1159 2491 1159 1978 
L 1159 0 
L 581 0 
L 581 3500 
L 1159 3500 
L 1159 2956 
Q 1366 3272 1645 3428 
Q 1925 3584 2291 3584 
Q 2894 3584 3203 3211 
Q 3513 2838 3513 2113 
z
" transform="scale(0.015625)" />
              <path id="DejaVuSans-73" d="M 2834 3397 
L 2834 2853 
Q 2591 2978 2328 3040 
Q 2066 3103 1784 3103 
Q 1356 3103 1142 2972 
Q 928 2841 928 2578 
Q 928 2378 1081 2264 
Q 1234 2150 1697 2047 
L 1894 2003 
Q 2506 1872 2764 1633 
Q 3022 1394 3022 966 
Q 3022 478 2636 193 
Q 2250 -91 1575 -91 
Q 1294 -91 989 -36 
Q 684 19 347 128 
L 347 722 
Q 666 556 975 473 
Q 1284 391 1588 391 
Q 1994 391 2212 530 
Q 2431 669 2431 922 
Q 2431 1156 2273 1281 
Q 2116 1406 1581 1522 
L 1381 1569 
Q 847 1681 609 1914 
Q 372 2147 372 2553 
Q 372 3047 722 3315 
Q 1072 3584 1716 3584 
Q 2034 3584 2315 3537 
Q 2597 3491 2834 3397 
z
" transform="scale(0.015625)" />
              <path id="DejaVuSans-6f" d="M 1959 3097 
Q 1497 3097 1228 2736 
Q 959 2375 959 1747 
Q 959 1119 1226 758 
Q 1494 397 1959 397 
Q 2419 397 2687 759 
Q 2956 1122 2956 1747 
Q 2956 2369 2687 2733 
Q 2419 3097 1959 3097 
z
M 1959 3584 
Q 2709 3584 3137 3096 
Q 3566 2609 3566 1747 
Q 3566 888 3137 398 
Q 2709 -91 1959 -91 
Q 1206 -91 779 398 
Q 353 888 353 1747 
Q 353 2609 779 3096 
Q 1206 3584 1959 3584 
z
" transform="scale(0.015625)" />
            </defs>
            <use xlink:href="#DejaVuSans-63" />
            <use xlink:href="#DejaVuSans-72" x="54.980469" />
            <use xlink:href="#DejaVuSans-65" x="93.84375" />
            <use xlink:href="#DejaVuSans-61" x="155.367188" />
            <use xlink:href="#DejaVuSans-74" x="216.646484" />
            <use xlink:href="#DejaVuSans-69" x="255.855469" />
            <use xlink:href="#DejaVuSans-76" x="283.638672" />
            <use xlink:href="#DejaVuSans-65" x="342.818359" />
            <use xlink:href="#DejaVuSans-20" x="404.341797" />
            <use xlink:href="#DejaVuSans-74" x="436.128906" />
            <use xlink:href="#DejaVuSans-65" x="475.337891" />
            <use xlink:href="#DejaVuSans-6e" x="536.861328" />
            <use xlink:href="#DejaVuSans-73" x="600.240234" />
            <use xlink:href="#DejaVuSans-69" x="652.339844" />
            <use xlink:href="#DejaVuSans-6f" x="680.123047" />
            <use xlink:href="#DejaVuSans-6e" x="741.304688" />
          </g>
        </g>
      </g>
      <g id="text_2">
        <g id="patch_16">
          <path d="M 223.738688 444.213796 
L 262.653931 404.429319 
Q 264.332141 402.713624 262.616446 401.035414 
L 257.08154 395.621438 
Q 255.365845 393.943228 253.687635 395.658924 
L 214.772392 435.4434 
Q 213.094182 437.159096 214.809877 438.837306 
L 220.344782 444.251281 
Q 222.060478 445.929492 223.738688 444.213796 
z
" clip-path="url(#p56b26ccaac)" style="fill: #ffffff; stroke: #ffffff; stroke-linejoin: miter" />
        </g>
        <g clip-path="url(#p56b26ccaac)">
          <!-- creative clash -->
          <g transform="translate(220.833622 441.372202) rotate(-45.632802) scale(0.08 -0.08)">
            <defs>
              <path id="DejaVuSans-6c" d="M 603 4863 
L 1178 4863 
L 1178 0 
L 603 0 
L 603 4863 
z
" transform="scale(0.015625)" />
              <path id="DejaVuSans-68" d="M 3513 2113 
L 3513 0 
L 2938 0 
L 2938 2094 
Q 2938 2591 2744 2837 
Q 2550 3084 2163 3084 
Q 1697 3084 1428 2787 
Q 1159 2491 1159 1978 
L 1159 0 
L 581 0 
L 581 4863 
L 1159 4863 
L 1159 2956 
Q 1366 3272 1645 3428 
Q 1925 3584 2291 3584 
Q 2894 3584 3203 3211 
Q 3513 2838 3513 2113 
z
" transform="scale(0.015625)" />
            </defs>
            <use xlink:href="#DejaVuSans-63" />
            <use xlink:href="#DejaVuSans-72" x="54.980469" />
            <use xlink:href="#DejaVuSans-65" x="93.84375" />
            <use xlink:href="#DejaVuSans-61" x="155.367188" />
            <use xlink:href="#DejaVuSans-74" x="216.646484" />
            <use xlink:href="#DejaVuSans-69" x="255.855469" />
            <use xlink:href="#DejaVuSans-76" x="283.638672" />
            <use xlink:href="#DejaVuSans-65" x="342.818359" />
            <use xlink:href="#DejaVuSans-20" x="404.341797" />
            <use xlink:href="#DejaVuSans-63" x="436.128906" />
            <use xlink:href="#DejaVuSans-6c" x="491.109375" />
            <use xlink:href="#DejaVuSans-61" x="518.892578" />
            <use xlink:href="#DejaVuSans-73" x="580.171875" />
            <use xlink:href="#DejaVuSans-68" x="632.271484" />
          </g>
        </g>
      </g>
      <g id="text_3">
        <g id="patch_17">
          <path d="M 297.288676 485.048519 
L 351.515853 472.656829 
Q 353.855542 472.122176 353.320889 469.782487 
L 351.596078 462.234551 
Q 351.061425 459.894862 348.721735 460.429514 
L 294.494559 472.821204 
Q 292.15487 473.355857 292.689522 475.695546 
L 294.414334 483.243482 
Q 294.948987 485.583171 297.288676 485.048519 
z
" clip-path="url(#p56b26ccaac)" style="fill: #ffffff; stroke: #ffffff; stroke-linejoin: miter" />
        </g>
        <g clip-path="url(#p56b26ccaac)">
          <!-- tense alliance -->
          <g transform="translate(296.383387 481.086888) rotate(-12.871896) scale(0.08 -0.08)">
            <use xlink:href="#DejaVuSans-74" />
            <use xlink:href="#DejaVuSans-65" x="39.208984" />
            <use xlink:href="#DejaVuSans-6e" x="100.732422" />
            <use xlink:href="#DejaVuSans-73" x="164.111328" />
            <use xlink:href="#DejaVuSans-65" x="216.210938" />
            <use xlink:href="#DejaVuSans-20" x="277.734375" />
            <use xlink:href="#DejaVuSans-61" x="309.521484" />
            <use xlink:href="#DejaVuSans-6c" x="370.800781" />
            <use xlink:href="#DejaVuSans-6c" x="398.583984" />
            <use xlink:href="#DejaVuSans-69" x="426.367188" />
            <use xlink:href="#DejaVuSans-61" x="454.150391" />
            <use xlink:href="#DejaVuSans-6e" x="515.429688" />
            <use xlink:href="#DejaVuSans-63" x="578.808594" />
            <use xlink:href="#DejaVuSans-65" x="633.789062" />
          </g>
        </g>
      </g>
      <g id="text_4">
        <g id="patch_18">
          <path d="M 87.515614 413.930337 
L 118.286541 474.508164 
Q 119.373453 476.647935 121.513225 475.561024 
L 128.416217 472.054601 
Q 130.555989 470.967689 129.469077 468.827917 
L 98.69815 408.250091 
Q 97.611238 406.110319 95.471467 407.197231 
L 88.568474 410.703654 
Q 86.428703 411.790566 87.515614 413.930337 
z
" clip-path="url(#p56b26ccaac)" style="fill: #ffffff; stroke: #ffffff; stroke-linejoin: miter" />
        </g>
        <g clip-path="url(#p56b26ccaac)">
          <!-- personality clash -->
          <g transform="translate(91.138738 412.089946) rotate(-296.928608) scale(0.08 -0.08)">
            <defs>
              <path id="DejaVuSans-70" d="M 1159 525 
L 1159 -1331 
L 581 -1331 
L 581 3500 
L 1159 3500 
L 1159 2969 
Q 1341 3281 1617 3432 
Q 1894 3584 2278 3584 
Q 2916 3584 3314 3078 
Q 3713 2572 3713 1747 
Q 3713 922 3314 415 
Q 2916 -91 2278 -91 
Q 1894 -91 1617 61 
Q 1341 213 1159 525 
z
M 3116 1747 
Q 3116 2381 2855 2742 
Q 2594 3103 2138 3103 
Q 1681 3103 1420 2742 
Q 1159 2381 1159 1747 
Q 1159 1113 1420 752 
Q 1681 391 2138 391 
Q 2594 391 2855 752 
Q 3116 1113 3116 1747 
z
" transform="scale(0.015625)" />
              <path id="DejaVuSans-79" d="M 2059 -325 
Q 1816 -950 1584 -1140 
Q 1353 -1331 966 -1331 
L 506 -1331 
L 506 -850 
L 844 -850 
Q 1081 -850 1212 -737 
Q 1344 -625 1503 -206 
L 1606 56 
L 191 3500 
L 800 3500 
L 1894 763 
L 2988 3500 
L 3597 3500 
L 2059 -325 
z
" transform="scale(0.015625)" />
            </defs>
            <use xlink:href="#DejaVuSans-70" />
            <use xlink:href="#DejaVuSans-65" x="63.476562" />
            <use xlink:href="#DejaVuSans-72" x="125" />
            <use xlink:href="#DejaVuSans-73" x="166.113281" />
            <use xlink:href="#DejaVuSans-6f" x="218.212891" />
            <use xlink:href="#DejaVuSans-6e" x="279.394531" />
            <use xlink:href="#DejaVuSans-61" x="342.773438" />
            <use xlink:href="#DejaVuSans-6c" x="404.052734" />
            <use xlink:href="#DejaVuSans-69" x="431.835938" />
            <use xlink:href="#DejaVuSans-74" x="459.619141" />
            <use xlink:href="#DejaVuSans-79" x="498.828125" />
            <use xlink:href="#DejaVuSans-20" x="558.007812" />
            <use xlink:href="#DejaVuSans-63" x="589.794922" />
            <use xlink:href="#DejaVuSans-6c" x="644.775391" />
            <use xlink:href="#DejaVuSans-61" x="672.558594" />
            <use xlink:href="#DejaVuSans-73" x="733.837891" />
            <use xlink:href="#DejaVuSans-68" x="785.9375" />
          </g>
        </g>
      </g>
      <g id="text_5">
        <g id="patch_19">
          <path d="M 170.55512 361.075504 
L 234.804338 350.121899 
Q 237.170202 349.718551 236.766855 347.352688 
L 235.46564 339.720313 
Q 235.062293 337.354449 232.696429 337.757796 
L 168.447211 348.711402 
Q 166.081347 349.114749 166.484694 351.480613 
L 167.785909 359.112988 
Q 168.189256 361.478851 170.55512 361.075504 
z
" clip-path="url(#p56b26ccaac)" style="fill: #ffffff; stroke: #ffffff; stroke-linejoin: miter" />
        </g>
        <g clip-path="url(#p56b26ccaac)">
          <!-- musical synergy -->
          <g transform="translate(169.87216 357.069555) rotate(-9.675118) scale(0.08 -0.08)">
            <defs>
              <path id="DejaVuSans-6d" d="M 3328 2828 
Q 3544 3216 3844 3400 
Q 4144 3584 4550 3584 
Q 5097 3584 5394 3201 
Q 5691 2819 5691 2113 
L 5691 0 
L 5113 0 
L 5113 2094 
Q 5113 2597 4934 2840 
Q 4756 3084 4391 3084 
Q 3944 3084 3684 2787 
Q 3425 2491 3425 1978 
L 3425 0 
L 2847 0 
L 2847 2094 
Q 2847 2600 2669 2842 
Q 2491 3084 2119 3084 
Q 1678 3084 1418 2786 
Q 1159 2488 1159 1978 
L 1159 0 
L 581 0 
L 581 3500 
L 1159 3500 
L 1159 2956 
Q 1356 3278 1631 3431 
Q 1906 3584 2284 3584 
Q 2666 3584 2933 3390 
Q 3200 3197 3328 2828 
z
" transform="scale(0.015625)" />
              <path id="DejaVuSans-75" d="M 544 1381 
L 544 3500 
L 1119 3500 
L 1119 1403 
Q 1119 906 1312 657 
Q 1506 409 1894 409 
Q 2359 409 2629 706 
Q 2900 1003 2900 1516 
L 2900 3500 
L 3475 3500 
L 3475 0 
L 2900 0 
L 2900 538 
Q 2691 219 2414 64 
Q 2138 -91 1772 -91 
Q 1169 -91 856 284 
Q 544 659 544 1381 
z
M 1991 3584 
L 1991 3584 
z
" transform="scale(0.015625)" />
              <path id="DejaVuSans-67" d="M 2906 1791 
Q 2906 2416 2648 2759 
Q 2391 3103 1925 3103 
Q 1463 3103 1205 2759 
Q 947 2416 947 1791 
Q 947 1169 1205 825 
Q 1463 481 1925 481 
Q 2391 481 2648 825 
Q 2906 1169 2906 1791 
z
M 3481 434 
Q 3481 -459 3084 -895 
Q 2688 -1331 1869 -1331 
Q 1566 -1331 1297 -1286 
Q 1028 -1241 775 -1147 
L 775 -588 
Q 1028 -725 1275 -790 
Q 1522 -856 1778 -856 
Q 2344 -856 2625 -561 
Q 2906 -266 2906 331 
L 2906 616 
Q 2728 306 2450 153 
Q 2172 0 1784 0 
Q 1141 0 747 490 
Q 353 981 353 1791 
Q 353 2603 747 3093 
Q 1141 3584 1784 3584 
Q 2172 3584 2450 3431 
Q 2728 3278 2906 2969 
L 2906 3500 
L 3481 3500 
L 3481 434 
z
" transform="scale(0.015625)" />
            </defs>
            <use xlink:href="#DejaVuSans-6d" />
            <use xlink:href="#DejaVuSans-75" x="97.412109" />
            <use xlink:href="#DejaVuSans-73" x="160.791016" />
            <use xlink:href="#DejaVuSans-69" x="212.890625" />
            <use xlink:href="#DejaVuSans-63" x="240.673828" />
            <use xlink:href="#DejaVuSans-61" x="295.654297" />
            <use xlink:href="#DejaVuSans-6c" x="356.933594" />
            <use xlink:href="#DejaVuSans-20" x="384.716797" />
            <use xlink:href="#DejaVuSans-73" x="416.503906" />
            <use xlink:href="#DejaVuSans-79" x="468.603516" />
            <use xlink:href="#DejaVuSans-6e" x="527.783203" />
            <use xlink:href="#DejaVuSans-65" x="591.162109" />
            <use xlink:href="#DejaVuSans-72" x="652.685547" />
            <use xlink:href="#DejaVuSans-67" x="692.048828" />
            <use xlink:href="#DejaVuSans-79" x="755.525391" />
          </g>
        </g>
      </g>
      <g id="text_6">
        <g id="patch_20">
          <path d="M 523.754973 390.164616 
L 551.775976 312.121313 
Q 552.586991 309.862496 550.328174 309.051481 
L 543.041137 306.435112 
Q 540.78232 305.624096 539.971304 307.882913 
L 511.950302 385.926216 
Q 511.139286 388.185033 513.398103 388.996048 
L 520.685141 391.612418 
Q 522.943958 392.423433 523.754973 390.164616 
z
" clip-path="url(#p56b26ccaac)" style="fill: #ffffff; stroke: #ffffff; stroke-linejoin: miter" />
        </g>
        <g clip-path="url(#p56b26ccaac)">
          <!-- early rhythm section -->
          <g transform="translate(519.930279 388.791381) rotate(-70.249614) scale(0.08 -0.08)">
            <use xlink:href="#DejaVuSans-65" />
            <use xlink:href="#DejaVuSans-61" x="61.523438" />
            <use xlink:href="#DejaVuSans-72" x="122.802734" />
            <use xlink:href="#DejaVuSans-6c" x="163.916016" />
            <use xlink:href="#DejaVuSans-79" x="191.699219" />
            <use xlink:href="#DejaVuSans-20" x="250.878906" />
            <use xlink:href="#DejaVuSans-72" x="282.666016" />
            <use xlink:href="#DejaVuSans-68" x="322.029297" />
            <use xlink:href="#DejaVuSans-79" x="385.408203" />
            <use xlink:href="#DejaVuSans-74" x="444.587891" />
            <use xlink:href="#DejaVuSans-68" x="483.796875" />
            <use xlink:href="#DejaVuSans-6d" x="547.175781" />
            <use xlink:href="#DejaVuSans-20" x="644.587891" />
            <use xlink:href="#DejaVuSans-73" x="676.375" />
            <use xlink:href="#DejaVuSans-65" x="728.474609" />
            <use xlink:href="#DejaVuSans-63" x="789.998047" />
            <use xlink:href="#DejaVuSans-74" x="844.978516" />
            <use xlink:href="#DejaVuSans-69" x="884.1875" />
            <use xlink:href="#DejaVuSans-6f" x="911.970703" />
            <use xlink:href="#DejaVuSans-6e" x="973.152344" />
          </g>
        </g>
      </g>
      <g id="text_7">
        <g id="patch_21">
          <path d="M 424.227573 309.372 
L 474.342105 295.135315 
Q 476.650755 294.479467 475.994907 292.170818 
L 473.879113 284.723018 
Q 473.223265 282.414368 470.914616 283.070216 
L 420.800084 297.306901 
Q 418.491434 297.962749 419.147282 300.271398 
L 421.263075 307.719198 
Q 421.918923 310.027848 424.227573 309.372 
z
" clip-path="url(#p56b26ccaac)" style="fill: #ffffff; stroke: #ffffff; stroke-linejoin: miter" />
        </g>
        <g clip-path="url(#p56b26ccaac)">
          <!-- early tension -->
          <g transform="translate(423.117072 305.462927) rotate(-15.858945) scale(0.08 -0.08)">
            <use xlink:href="#DejaVuSans-65" />
            <use xlink:href="#DejaVuSans-61" x="61.523438" />
            <use xlink:href="#DejaVuSans-72" x="122.802734" />
            <use xlink:href="#DejaVuSans-6c" x="163.916016" />
            <use xlink:href="#DejaVuSans-79" x="191.699219" />
            <use xlink:href="#DejaVuSans-20" x="250.878906" />
            <use xlink:href="#DejaVuSans-74" x="282.666016" />
            <use xlink:href="#DejaVuSans-65" x="321.875" />
            <use xlink:href="#DejaVuSans-6e" x="383.398438" />
            <use xlink:href="#DejaVuSans-73" x="446.777344" />
            <use xlink:href="#DejaVuSans-69" x="498.876953" />
            <use xlink:href="#DejaVuSans-6f" x="526.660156" />
            <use xlink:href="#DejaVuSans-6e" x="587.841797" />
          </g>
        </g>
      </g>
      <g id="text_8">
        <g id="patch_22">
          <path d="M 461.073973 343.998801 
L 518.384637 348.504396 
Q 520.777255 348.692497 520.965355 346.299879 
L 521.572175 338.581196 
Q 521.760276 336.188578 519.367658 336.000478 
L 462.056994 331.494883 
Q 459.664377 331.306782 459.476276 333.6994 
L 458.869456 341.418083 
Q 458.681355 343.8107 461.073973 343.998801 
z
" clip-path="url(#p56b26ccaac)" style="fill: #ffffff; stroke: #ffffff; stroke-linejoin: miter" />
        </g>
        <g clip-path="url(#p56b26ccaac)">
          <!-- clashed in 80s -->
          <g transform="translate(461.39247 339.947551) rotate(-355.504821) scale(0.08 -0.08)">
            <defs>
              <path id="DejaVuSans-64" d="M 2906 2969 
L 2906 4863 
L 3481 4863 
L 3481 0 
L 2906 0 
L 2906 525 
Q 2725 213 2448 61 
Q 2172 -91 1784 -91 
Q 1150 -91 751 415 
Q 353 922 353 1747 
Q 353 2572 751 3078 
Q 1150 3584 1784 3584 
Q 2172 3584 2448 3432 
Q 2725 3281 2906 2969 
z
M 947 1747 
Q 947 1113 1208 752 
Q 1469 391 1925 391 
Q 2381 391 2643 752 
Q 2906 1113 2906 1747 
Q 2906 2381 2643 2742 
Q 2381 3103 1925 3103 
Q 1469 3103 1208 2742 
Q 947 2381 947 1747 
z
" transform="scale(0.015625)" />
              <path id="DejaVuSans-38" d="M 2034 2216 
Q 1584 2216 1326 1975 
Q 1069 1734 1069 1313 
Q 1069 891 1326 650 
Q 1584 409 2034 409 
Q 2484 409 2743 651 
Q 3003 894 3003 1313 
Q 3003 1734 2745 1975 
Q 2488 2216 2034 2216 
z
M 1403 2484 
Q 997 2584 770 2862 
Q 544 3141 544 3541 
Q 544 4100 942 4425 
Q 1341 4750 2034 4750 
Q 2731 4750 3128 4425 
Q 3525 4100 3525 3541 
Q 3525 3141 3298 2862 
Q 3072 2584 2669 2484 
Q 3125 2378 3379 2068 
Q 3634 1759 3634 1313 
Q 3634 634 3220 271 
Q 2806 -91 2034 -91 
Q 1263 -91 848 271 
Q 434 634 434 1313 
Q 434 1759 690 2068 
Q 947 2378 1403 2484 
z
M 1172 3481 
Q 1172 3119 1398 2916 
Q 1625 2713 2034 2713 
Q 2441 2713 2670 2916 
Q 2900 3119 2900 3481 
Q 2900 3844 2670 4047 
Q 2441 4250 2034 4250 
Q 1625 4250 1398 4047 
Q 1172 3844 1172 3481 
z
" transform="scale(0.015625)" />
              <path id="DejaVuSans-30" d="M 2034 4250 
Q 1547 4250 1301 3770 
Q 1056 3291 1056 2328 
Q 1056 1369 1301 889 
Q 1547 409 2034 409 
Q 2525 409 2770 889 
Q 3016 1369 3016 2328 
Q 3016 3291 2770 3770 
Q 2525 4250 2034 4250 
z
M 2034 4750 
Q 2819 4750 3233 4129 
Q 3647 3509 3647 2328 
Q 3647 1150 3233 529 
Q 2819 -91 2034 -91 
Q 1250 -91 836 529 
Q 422 1150 422 2328 
Q 422 3509 836 4129 
Q 1250 4750 2034 4750 
z
" transform="scale(0.015625)" />
            </defs>
            <use xlink:href="#DejaVuSans-63" />
            <use xlink:href="#DejaVuSans-6c" x="54.980469" />
            <use xlink:href="#DejaVuSans-61" x="82.763672" />
            <use xlink:href="#DejaVuSans-73" x="144.042969" />
            <use xlink:href="#DejaVuSans-68" x="196.142578" />
            <use xlink:href="#DejaVuSans-65" x="259.521484" />
            <use xlink:href="#DejaVuSans-64" x="321.044922" />
            <use xlink:href="#DejaVuSans-20" x="384.521484" />
            <use xlink:href="#DejaVuSans-69" x="416.308594" />
            <use xlink:href="#DejaVuSans-6e" x="444.091797" />
            <use xlink:href="#DejaVuSans-20" x="507.470703" />
            <use xlink:href="#DejaVuSans-38" x="539.257812" />
            <use xlink:href="#DejaVuSans-30" x="602.880859" />
            <use xlink:href="#DejaVuSans-73" x="666.503906" />
          </g>
        </g>
      </g>
      <g id="text_9">
        <g id="patch_23">
          <path d="M 548.919755 414.605622 
L 606.316126 381.896136 
Q 608.401292 380.707826 607.212982 378.622659 
L 603.379442 371.895826 
Q 602.191132 369.81066 600.105966 370.998971 
L 542.709594 403.708456 
Q 540.624428 404.896767 541.812739 406.981933 
L 545.646278 413.708766 
Q 546.834588 415.793932 548.919755 414.605622 
z
" clip-path="url(#p56b26ccaac)" style="fill: #ffffff; stroke: #ffffff; stroke-linejoin: miter" />
        </g>
        <g clip-path="url(#p56b26ccaac)">
          <!-- worked together -->
          <g transform="translate(546.907673 411.074957) rotate(-29.678283) scale(0.08 -0.08)">
            <defs>
              <path id="DejaVuSans-77" d="M 269 3500 
L 844 3500 
L 1563 769 
L 2278 3500 
L 2956 3500 
L 3675 769 
L 4391 3500 
L 4966 3500 
L 4050 0 
L 3372 0 
L 2619 2869 
L 1863 0 
L 1184 0 
L 269 3500 
z
" transform="scale(0.015625)" />
              <path id="DejaVuSans-6b" d="M 581 4863 
L 1159 4863 
L 1159 1991 
L 2875 3500 
L 3609 3500 
L 1753 1863 
L 3688 0 
L 2938 0 
L 1159 1709 
L 1159 0 
L 581 0 
L 581 4863 
z
" transform="scale(0.015625)" />
            </defs>
            <use xlink:href="#DejaVuSans-77" />
            <use xlink:href="#DejaVuSans-6f" x="81.787109" />
            <use xlink:href="#DejaVuSans-72" x="142.96875" />
            <use xlink:href="#DejaVuSans-6b" x="184.082031" />
            <use xlink:href="#DejaVuSans-65" x="238.367188" />
            <use xlink:href="#DejaVuSans-64" x="299.890625" />
            <use xlink:href="#DejaVuSans-20" x="363.367188" />
            <use xlink:href="#DejaVuSans-74" x="395.154297" />
            <use xlink:href="#DejaVuSans-6f" x="434.363281" />
            <use xlink:href="#DejaVuSans-67" x="495.544922" />
            <use xlink:href="#DejaVuSans-65" x="559.021484" />
            <use xlink:href="#DejaVuSans-74" x="620.544922" />
            <use xlink:href="#DejaVuSans-68" x="659.753906" />
            <use xlink:href="#DejaVuSans-65" x="723.132812" />
            <use xlink:href="#DejaVuSans-72" x="784.65625" />
          </g>
        </g>
      </g>
      <g id="text_10">
        <g id="patch_24">
          <path d="M 518.62611 463.617257 
L 553.562535 505.648378 
Q 555.096657 507.494041 556.94232 505.959919 
L 562.896504 501.010779 
Q 564.742167 499.476657 563.208045 497.630994 
L 528.271619 455.599873 
Q 526.737498 453.75421 524.891835 455.288332 
L 518.937651 460.237472 
Q 517.091988 461.771594 518.62611 463.617257 
z
" clip-path="url(#p56b26ccaac)" style="fill: #ffffff; stroke: #ffffff; stroke-linejoin: miter" />
        </g>
        <g clip-path="url(#p56b26ccaac)">
          <!-- Drama album -->
          <g transform="translate(521.751239 461.019637) rotate(-309.733486) scale(0.08 -0.08)">
            <defs>
              <path id="DejaVuSans-44" d="M 1259 4147 
L 1259 519 
L 2022 519 
Q 2988 519 3436 956 
Q 3884 1394 3884 2338 
Q 3884 3275 3436 3711 
Q 2988 4147 2022 4147 
L 1259 4147 
z
M 628 4666 
L 1925 4666 
Q 3281 4666 3915 4102 
Q 4550 3538 4550 2338 
Q 4550 1131 3912 565 
Q 3275 0 1925 0 
L 628 0 
L 628 4666 
z
" transform="scale(0.015625)" />
              <path id="DejaVuSans-62" d="M 3116 1747 
Q 3116 2381 2855 2742 
Q 2594 3103 2138 3103 
Q 1681 3103 1420 2742 
Q 1159 2381 1159 1747 
Q 1159 1113 1420 752 
Q 1681 391 2138 391 
Q 2594 391 2855 752 
Q 3116 1113 3116 1747 
z
M 1159 2969 
Q 1341 3281 1617 3432 
Q 1894 3584 2278 3584 
Q 2916 3584 3314 3078 
Q 3713 2572 3713 1747 
Q 3713 922 3314 415 
Q 2916 -91 2278 -91 
Q 1894 -91 1617 61 
Q 1341 213 1159 525 
L 1159 0 
L 581 0 
L 581 4863 
L 1159 4863 
L 1159 2969 
z
" transform="scale(0.015625)" />
            </defs>
            <use xlink:href="#DejaVuSans-44" />
            <use xlink:href="#DejaVuSans-72" x="77.001953" />
            <use xlink:href="#DejaVuSans-61" x="118.115234" />
            <use xlink:href="#DejaVuSans-6d" x="179.394531" />
            <use xlink:href="#DejaVuSans-61" x="276.806641" />
            <use xlink:href="#DejaVuSans-20" x="338.085938" />
            <use xlink:href="#DejaVuSans-61" x="369.873047" />
            <use xlink:href="#DejaVuSans-6c" x="431.152344" />
            <use xlink:href="#DejaVuSans-62" x="458.935547" />
            <use xlink:href="#DejaVuSans-75" x="522.412109" />
            <use xlink:href="#DejaVuSans-6d" x="585.791016" />
          </g>
        </g>
      </g>
      <g id="text_11">
        <g id="patch_25">
          <path d="M 325.526105 317.607557 
L 325.954738 398.717674 
Q 325.967421 401.117641 328.367387 401.104958 
L 336.109779 401.064043 
Q 338.509746 401.05136 338.497063 398.651393 
L 338.06843 317.541276 
Q 338.055747 315.14131 335.65578 315.153992 
L 327.913388 315.194908 
Q 325.513422 315.207591 325.526105 317.607557 
z
" clip-path="url(#p56b26ccaac)" style="fill: #ffffff; stroke: #ffffff; stroke-linejoin: miter" />
        </g>
        <g clip-path="url(#p56b26ccaac)">
          <!-- returned with ABWH -->
          <g transform="translate(329.589798 317.586082) rotate(-270.302782) scale(0.08 -0.08)">
            <defs>
              <path id="DejaVuSans-41" d="M 2188 4044 
L 1331 1722 
L 3047 1722 
L 2188 4044 
z
M 1831 4666 
L 2547 4666 
L 4325 0 
L 3669 0 
L 3244 1197 
L 1141 1197 
L 716 0 
L 50 0 
L 1831 4666 
z
" transform="scale(0.015625)" />
              <path id="DejaVuSans-42" d="M 1259 2228 
L 1259 519 
L 2272 519 
Q 2781 519 3026 730 
Q 3272 941 3272 1375 
Q 3272 1813 3026 2020 
Q 2781 2228 2272 2228 
L 1259 2228 
z
M 1259 4147 
L 1259 2741 
L 2194 2741 
Q 2656 2741 2882 2914 
Q 3109 3088 3109 3444 
Q 3109 3797 2882 3972 
Q 2656 4147 2194 4147 
L 1259 4147 
z
M 628 4666 
L 2241 4666 
Q 2963 4666 3353 4366 
Q 3744 4066 3744 3513 
Q 3744 3084 3544 2831 
Q 3344 2578 2956 2516 
Q 3422 2416 3680 2098 
Q 3938 1781 3938 1306 
Q 3938 681 3513 340 
Q 3088 0 2303 0 
L 628 0 
L 628 4666 
z
" transform="scale(0.015625)" />
              <path id="DejaVuSans-57" d="M 213 4666 
L 850 4666 
L 1831 722 
L 2809 4666 
L 3519 4666 
L 4500 722 
L 5478 4666 
L 6119 4666 
L 4947 0 
L 4153 0 
L 3169 4050 
L 2175 0 
L 1381 0 
L 213 4666 
z
" transform="scale(0.015625)" />
              <path id="DejaVuSans-48" d="M 628 4666 
L 1259 4666 
L 1259 2753 
L 3553 2753 
L 3553 4666 
L 4184 4666 
L 4184 0 
L 3553 0 
L 3553 2222 
L 1259 2222 
L 1259 0 
L 628 0 
L 628 4666 
z
" transform="scale(0.015625)" />
            </defs>
            <use xlink:href="#DejaVuSans-72" />
            <use xlink:href="#DejaVuSans-65" x="38.863281" />
            <use xlink:href="#DejaVuSans-74" x="100.386719" />
            <use xlink:href="#DejaVuSans-75" x="139.595703" />
            <use xlink:href="#DejaVuSans-72" x="202.974609" />
            <use xlink:href="#DejaVuSans-6e" x="242.337891" />
            <use xlink:href="#DejaVuSans-65" x="305.716797" />
            <use xlink:href="#DejaVuSans-64" x="367.240234" />
            <use xlink:href="#DejaVuSans-20" x="430.716797" />
            <use xlink:href="#DejaVuSans-77" x="462.503906" />
            <use xlink:href="#DejaVuSans-69" x="544.291016" />
            <use xlink:href="#DejaVuSans-74" x="572.074219" />
            <use xlink:href="#DejaVuSans-68" x="611.283203" />
            <use xlink:href="#DejaVuSans-20" x="674.662109" />
            <use xlink:href="#DejaVuSans-41" x="706.449219" />
            <use xlink:href="#DejaVuSans-42" x="774.857422" />
            <use xlink:href="#DejaVuSans-57" x="839.835938" />
            <use xlink:href="#DejaVuSans-48" x="938.712891" />
          </g>
        </g>
      </g>
      <g id="text_12">
        <g id="patch_26">
          <path d="M 160.899012 383.029352 
L 241.816829 388.627722 
Q 244.211106 388.793373 244.376756 386.399096 
L 244.91115 378.67506 
Q 245.076801 376.280784 242.682524 376.115134 
L 161.764707 370.516763 
Q 159.37043 370.351113 159.20478 372.745389 
L 158.670386 380.469425 
Q 158.504736 382.863702 160.899012 383.029352 
z
" clip-path="url(#p56b26ccaac)" style="fill: #ffffff; stroke: #ffffff; stroke-linejoin: miter" />
        </g>
        <g clip-path="url(#p56b26ccaac)">
          <!-- returned with ABWH -->
          <g transform="translate(161.179496 378.975293) rotate(-356.042248) scale(0.08 -0.08)">
            <use xlink:href="#DejaVuSans-72" />
            <use xlink:href="#DejaVuSans-65" x="38.863281" />
            <use xlink:href="#DejaVuSans-74" x="100.386719" />
            <use xlink:href="#DejaVuSans-75" x="139.595703" />
            <use xlink:href="#DejaVuSans-72" x="202.974609" />
            <use xlink:href="#DejaVuSans-6e" x="242.337891" />
            <use xlink:href="#DejaVuSans-65" x="305.716797" />
            <use xlink:href="#DejaVuSans-64" x="367.240234" />
            <use xlink:href="#DejaVuSans-20" x="430.716797" />
            <use xlink:href="#DejaVuSans-77" x="462.503906" />
            <use xlink:href="#DejaVuSans-69" x="544.291016" />
            <use xlink:href="#DejaVuSans-74" x="572.074219" />
            <use xlink:href="#DejaVuSans-68" x="611.283203" />
            <use xlink:href="#DejaVuSans-20" x="674.662109" />
            <use xlink:href="#DejaVuSans-41" x="706.449219" />
            <use xlink:href="#DejaVuSans-42" x="774.857422" />
            <use xlink:href="#DejaVuSans-57" x="839.835938" />
            <use xlink:href="#DejaVuSans-48" x="938.712891" />
          </g>
        </g>
      </g>
      <g id="text_13">
        <g id="patch_27">
          <path d="M 450.985583 381.145122 
L 531.263781 371.620484 
Q 533.647065 371.337718 533.364299 368.954434 
L 532.452085 361.26586 
Q 532.16932 358.882576 529.786036 359.165341 
L 449.507838 368.68998 
Q 447.124554 368.972745 447.40732 371.35603 
L 448.319534 379.044604 
Q 448.602299 381.427888 450.985583 381.145122 
z
" clip-path="url(#p56b26ccaac)" style="fill: #ffffff; stroke: #ffffff; stroke-linejoin: miter" />
        </g>
        <g clip-path="url(#p56b26ccaac)">
          <!-- rival faction merged -->
          <g transform="translate(450.506796 377.109676) rotate(-6.76625) scale(0.08 -0.08)">
            <defs>
              <path id="DejaVuSans-66" d="M 2375 4863 
L 2375 4384 
L 1825 4384 
Q 1516 4384 1395 4259 
Q 1275 4134 1275 3809 
L 1275 3500 
L 2222 3500 
L 2222 3053 
L 1275 3053 
L 1275 0 
L 697 0 
L 697 3053 
L 147 3053 
L 147 3500 
L 697 3500 
L 697 3744 
Q 697 4328 969 4595 
Q 1241 4863 1831 4863 
L 2375 4863 
z
" transform="scale(0.015625)" />
            </defs>
            <use xlink:href="#DejaVuSans-72" />
            <use xlink:href="#DejaVuSans-69" x="41.113281" />
            <use xlink:href="#DejaVuSans-76" x="68.896484" />
            <use xlink:href="#DejaVuSans-61" x="128.076172" />
            <use xlink:href="#DejaVuSans-6c" x="189.355469" />
            <use xlink:href="#DejaVuSans-20" x="217.138672" />
            <use xlink:href="#DejaVuSans-66" x="248.925781" />
            <use xlink:href="#DejaVuSans-61" x="284.130859" />
            <use xlink:href="#DejaVuSans-63" x="345.410156" />
            <use xlink:href="#DejaVuSans-74" x="400.390625" />
            <use xlink:href="#DejaVuSans-69" x="439.599609" />
            <use xlink:href="#DejaVuSans-6f" x="467.382812" />
            <use xlink:href="#DejaVuSans-6e" x="528.564453" />
            <use xlink:href="#DejaVuSans-20" x="591.943359" />
            <use xlink:href="#DejaVuSans-6d" x="623.730469" />
            <use xlink:href="#DejaVuSans-65" x="721.142578" />
            <use xlink:href="#DejaVuSans-72" x="782.666016" />
            <use xlink:href="#DejaVuSans-67" x="822.029297" />
            <use xlink:href="#DejaVuSans-65" x="885.505859" />
            <use xlink:href="#DejaVuSans-64" x="947.029297" />
          </g>
        </g>
      </g>
      <g id="PathCollection_1">
        <defs>
          <path id="C0_0_8f581464da" d="M 0 22.36068 
C 5.930122 22.36068 11.618159 20.004617 15.811388 15.811388 
C 20.004617 11.618159 22.36068 5.930122 22.36068 -0 
C 22.36068 -5.930122 20.004617 -11.618159 15.811388 -15.811388 
C 11.618159 -20.004617 5.930122 -22.36068 0 -22.36068 
C -5.930122 -22.36068 -11.618159 -20.004617 -15.811388 -15.811388 
C -20.004617 -11.618159 -22.36068 -5.930122 -22.36068 0 
C -22.36068 5.930122 -20.004617 11.618159 -15.811388 15.811388 
C -11.618159 20.004617 -5.930122 22.36068 0 22.36068 
z
" />
        </defs>
        <g clip-path="url(#p56b26ccaac)">
          <use xlink:href="#C0_0_8f581464da" x="331.84659" y="327.973883" style="fill: #add8e6; stroke: #add8e6" />
        </g>
        <g clip-path="url(#p56b26ccaac)">
          <use xlink:href="#C0_0_8f581464da" x="500.430679" y="433.579196" style="fill: #add8e6; stroke: #add8e6" />
        </g>
        <g clip-path="url(#p56b26ccaac)">
          <use xlink:href="#C0_0_8f581464da" x="145.579733" y="511.898837" style="fill: #add8e6; stroke: #add8e6" />
        </g>
        <g clip-path="url(#p56b26ccaac)">
          <use xlink:href="#C0_0_8f581464da" x="71.404959" y="370.859418" style="fill: #add8e6; stroke: #add8e6" />
        </g>
        <g clip-path="url(#p56b26ccaac)">
          <use xlink:href="#C0_0_8f581464da" x="563.295599" y="264.468333" style="fill: #add8e6; stroke: #add8e6" />
        </g>
        <g clip-path="url(#p56b26ccaac)">
          <use xlink:href="#C0_0_8f581464da" x="183.629899" y="53.410909" style="fill: #add8e6; stroke: #add8e6" />
        </g>
        <g clip-path="url(#p56b26ccaac)">
          <use xlink:href="#C0_0_8f581464da" x="648.595041" y="352.025396" style="fill: #add8e6; stroke: #add8e6" />
        </g>
        <g clip-path="url(#p56b26ccaac)">
          <use xlink:href="#C0_0_8f581464da" x="581.403476" y="527.669055" style="fill: #add8e6; stroke: #add8e6" />
        </g>
        <g clip-path="url(#p56b26ccaac)">
          <use xlink:href="#C0_0_8f581464da" x="332.176578" y="388.285068" style="fill: #d3d3d3; stroke: #d3d3d3" />
        </g>
      </g>
      <g id="text_14">
        <g clip-path="url(#p56b26ccaac)">
          <!-- Jon Anderson -->
          <g transform="translate(298.826277 330.733258) scale(0.1 -0.1)">
            <defs>
              <path id="DejaVuSans-4a" d="M 628 4666 
L 1259 4666 
L 1259 325 
Q 1259 -519 939 -900 
Q 619 -1281 -91 -1281 
L -331 -1281 
L -331 -750 
L -134 -750 
Q 284 -750 456 -515 
Q 628 -281 628 325 
L 628 4666 
z
" transform="scale(0.015625)" />
            </defs>
            <use xlink:href="#DejaVuSans-4a" />
            <use xlink:href="#DejaVuSans-6f" x="29.492188" />
            <use xlink:href="#DejaVuSans-6e" x="90.673828" />
            <use xlink:href="#DejaVuSans-20" x="154.052734" />
            <use xlink:href="#DejaVuSans-41" x="185.839844" />
            <use xlink:href="#DejaVuSans-6e" x="254.248047" />
            <use xlink:href="#DejaVuSans-64" x="317.626953" />
            <use xlink:href="#DejaVuSans-65" x="381.103516" />
            <use xlink:href="#DejaVuSans-72" x="442.626953" />
            <use xlink:href="#DejaVuSans-73" x="483.740234" />
            <use xlink:href="#DejaVuSans-6f" x="535.839844" />
            <use xlink:href="#DejaVuSans-6e" x="597.021484" />
          </g>
        </g>
      </g>
      <g id="text_15">
        <g clip-path="url(#p56b26ccaac)">
          <!-- Chris Squire -->
          <g transform="translate(470.20646 436.338571) scale(0.1 -0.1)">
            <defs>
              <path id="DejaVuSans-43" d="M 4122 4306 
L 4122 3641 
Q 3803 3938 3442 4084 
Q 3081 4231 2675 4231 
Q 1875 4231 1450 3742 
Q 1025 3253 1025 2328 
Q 1025 1406 1450 917 
Q 1875 428 2675 428 
Q 3081 428 3442 575 
Q 3803 722 4122 1019 
L 4122 359 
Q 3791 134 3420 21 
Q 3050 -91 2638 -91 
Q 1578 -91 968 557 
Q 359 1206 359 2328 
Q 359 3453 968 4101 
Q 1578 4750 2638 4750 
Q 3056 4750 3426 4639 
Q 3797 4528 4122 4306 
z
" transform="scale(0.015625)" />
              <path id="DejaVuSans-53" d="M 3425 4513 
L 3425 3897 
Q 3066 4069 2747 4153 
Q 2428 4238 2131 4238 
Q 1616 4238 1336 4038 
Q 1056 3838 1056 3469 
Q 1056 3159 1242 3001 
Q 1428 2844 1947 2747 
L 2328 2669 
Q 3034 2534 3370 2195 
Q 3706 1856 3706 1288 
Q 3706 609 3251 259 
Q 2797 -91 1919 -91 
Q 1588 -91 1214 -16 
Q 841 59 441 206 
L 441 856 
Q 825 641 1194 531 
Q 1563 422 1919 422 
Q 2459 422 2753 634 
Q 3047 847 3047 1241 
Q 3047 1584 2836 1778 
Q 2625 1972 2144 2069 
L 1759 2144 
Q 1053 2284 737 2584 
Q 422 2884 422 3419 
Q 422 4038 858 4394 
Q 1294 4750 2059 4750 
Q 2388 4750 2728 4690 
Q 3069 4631 3425 4513 
z
" transform="scale(0.015625)" />
              <path id="DejaVuSans-71" d="M 947 1747 
Q 947 1113 1208 752 
Q 1469 391 1925 391 
Q 2381 391 2643 752 
Q 2906 1113 2906 1747 
Q 2906 2381 2643 2742 
Q 2381 3103 1925 3103 
Q 1469 3103 1208 2742 
Q 947 2381 947 1747 
z
M 2906 525 
Q 2725 213 2448 61 
Q 2172 -91 1784 -91 
Q 1150 -91 751 415 
Q 353 922 353 1747 
Q 353 2572 751 3078 
Q 1150 3584 1784 3584 
Q 2172 3584 2448 3432 
Q 2725 3281 2906 2969 
L 2906 3500 
L 3481 3500 
L 3481 -1331 
L 2906 -1331 
L 2906 525 
z
" transform="scale(0.015625)" />
            </defs>
            <use xlink:href="#DejaVuSans-43" />
            <use xlink:href="#DejaVuSans-68" x="69.824219" />
            <use xlink:href="#DejaVuSans-72" x="133.203125" />
            <use xlink:href="#DejaVuSans-69" x="174.316406" />
            <use xlink:href="#DejaVuSans-73" x="202.099609" />
            <use xlink:href="#DejaVuSans-20" x="254.199219" />
            <use xlink:href="#DejaVuSans-53" x="285.986328" />
            <use xlink:href="#DejaVuSans-71" x="349.462891" />
            <use xlink:href="#DejaVuSans-75" x="412.939453" />
            <use xlink:href="#DejaVuSans-69" x="476.318359" />
            <use xlink:href="#DejaVuSans-72" x="504.101562" />
            <use xlink:href="#DejaVuSans-65" x="542.964844" />
          </g>
        </g>
      </g>
      <g id="text_16">
        <g clip-path="url(#p56b26ccaac)">
          <!-- Steve Howe -->
          <g transform="translate(115.758639 514.658212) scale(0.1 -0.1)">
            <use xlink:href="#DejaVuSans-53" />
            <use xlink:href="#DejaVuSans-74" x="63.476562" />
            <use xlink:href="#DejaVuSans-65" x="102.685547" />
            <use xlink:href="#DejaVuSans-76" x="164.208984" />
            <use xlink:href="#DejaVuSans-65" x="223.388672" />
            <use xlink:href="#DejaVuSans-20" x="284.912109" />
            <use xlink:href="#DejaVuSans-48" x="316.699219" />
            <use xlink:href="#DejaVuSans-6f" x="391.894531" />
            <use xlink:href="#DejaVuSans-77" x="453.076172" />
            <use xlink:href="#DejaVuSans-65" x="534.863281" />
          </g>
        </g>
      </g>
      <g id="text_17">
        <g clip-path="url(#p56b26ccaac)">
          <!-- Rick Wakeman -->
          <g transform="translate(34.725271 373.618793) scale(0.1 -0.1)">
            <defs>
              <path id="DejaVuSans-52" d="M 2841 2188 
Q 3044 2119 3236 1894 
Q 3428 1669 3622 1275 
L 4263 0 
L 3584 0 
L 2988 1197 
Q 2756 1666 2539 1819 
Q 2322 1972 1947 1972 
L 1259 1972 
L 1259 0 
L 628 0 
L 628 4666 
L 2053 4666 
Q 2853 4666 3247 4331 
Q 3641 3997 3641 3322 
Q 3641 2881 3436 2590 
Q 3231 2300 2841 2188 
z
M 1259 4147 
L 1259 2491 
L 2053 2491 
Q 2509 2491 2742 2702 
Q 2975 2913 2975 3322 
Q 2975 3731 2742 3939 
Q 2509 4147 2053 4147 
L 1259 4147 
z
" transform="scale(0.015625)" />
            </defs>
            <use xlink:href="#DejaVuSans-52" />
            <use xlink:href="#DejaVuSans-69" x="69.482422" />
            <use xlink:href="#DejaVuSans-63" x="97.265625" />
            <use xlink:href="#DejaVuSans-6b" x="152.246094" />
            <use xlink:href="#DejaVuSans-20" x="210.15625" />
            <use xlink:href="#DejaVuSans-57" x="241.943359" />
            <use xlink:href="#DejaVuSans-61" x="334.445312" />
            <use xlink:href="#DejaVuSans-6b" x="395.724609" />
            <use xlink:href="#DejaVuSans-65" x="450.009766" />
            <use xlink:href="#DejaVuSans-6d" x="511.533203" />
            <use xlink:href="#DejaVuSans-61" x="608.945312" />
            <use xlink:href="#DejaVuSans-6e" x="670.224609" />
          </g>
        </g>
      </g>
      <g id="text_18">
        <g clip-path="url(#p56b26ccaac)">
          <!-- Bill Bruford -->
          <g transform="translate(535.492474 267.227708) scale(0.1 -0.1)">
            <use xlink:href="#DejaVuSans-42" />
            <use xlink:href="#DejaVuSans-69" x="68.603516" />
            <use xlink:href="#DejaVuSans-6c" x="96.386719" />
            <use xlink:href="#DejaVuSans-6c" x="124.169922" />
            <use xlink:href="#DejaVuSans-20" x="151.953125" />
            <use xlink:href="#DejaVuSans-42" x="183.740234" />
            <use xlink:href="#DejaVuSans-72" x="252.34375" />
            <use xlink:href="#DejaVuSans-75" x="293.457031" />
            <use xlink:href="#DejaVuSans-66" x="356.835938" />
            <use xlink:href="#DejaVuSans-6f" x="392.041016" />
            <use xlink:href="#DejaVuSans-72" x="453.222656" />
            <use xlink:href="#DejaVuSans-64" x="492.585938" />
          </g>
        </g>
      </g>
      <g id="text_19">
        <g clip-path="url(#p56b26ccaac)">
          <!-- Alan White -->
          <g transform="translate(156.460368 56.170284) scale(0.1 -0.1)">
            <use xlink:href="#DejaVuSans-41" />
            <use xlink:href="#DejaVuSans-6c" x="68.408203" />
            <use xlink:href="#DejaVuSans-61" x="96.191406" />
            <use xlink:href="#DejaVuSans-6e" x="157.470703" />
            <use xlink:href="#DejaVuSans-20" x="220.849609" />
            <use xlink:href="#DejaVuSans-57" x="252.636719" />
            <use xlink:href="#DejaVuSans-68" x="351.513672" />
            <use xlink:href="#DejaVuSans-69" x="414.892578" />
            <use xlink:href="#DejaVuSans-74" x="442.675781" />
            <use xlink:href="#DejaVuSans-65" x="481.884766" />
          </g>
        </g>
      </g>
      <g id="text_20">
        <g clip-path="url(#p56b26ccaac)">
          <!-- Trevor Rabin -->
          <g transform="translate(617.43801 354.784771) scale(0.1 -0.1)">
            <defs>
              <path id="DejaVuSans-54" d="M -19 4666 
L 3928 4666 
L 3928 4134 
L 2272 4134 
L 2272 0 
L 1638 0 
L 1638 4134 
L -19 4134 
L -19 4666 
z
" transform="scale(0.015625)" />
            </defs>
            <use xlink:href="#DejaVuSans-54" />
            <use xlink:href="#DejaVuSans-72" x="46.333984" />
            <use xlink:href="#DejaVuSans-65" x="85.197266" />
            <use xlink:href="#DejaVuSans-76" x="146.720703" />
            <use xlink:href="#DejaVuSans-6f" x="205.900391" />
            <use xlink:href="#DejaVuSans-72" x="267.082031" />
            <use xlink:href="#DejaVuSans-20" x="308.195312" />
            <use xlink:href="#DejaVuSans-52" x="339.982422" />
            <use xlink:href="#DejaVuSans-61" x="407.214844" />
            <use xlink:href="#DejaVuSans-62" x="468.494141" />
            <use xlink:href="#DejaVuSans-69" x="531.970703" />
            <use xlink:href="#DejaVuSans-6e" x="559.753906" />
          </g>
        </g>
      </g>
      <g id="text_21">
        <g clip-path="url(#p56b26ccaac)">
          <!-- Trevor Horn -->
          <g transform="translate(552.448007 530.42843) scale(0.1 -0.1)">
            <use xlink:href="#DejaVuSans-54" />
            <use xlink:href="#DejaVuSans-72" x="46.333984" />
            <use xlink:href="#DejaVuSans-65" x="85.197266" />
            <use xlink:href="#DejaVuSans-76" x="146.720703" />
            <use xlink:href="#DejaVuSans-6f" x="205.900391" />
            <use xlink:href="#DejaVuSans-72" x="267.082031" />
            <use xlink:href="#DejaVuSans-20" x="308.195312" />
            <use xlink:href="#DejaVuSans-48" x="339.982422" />
            <use xlink:href="#DejaVuSans-6f" x="415.177734" />
            <use xlink:href="#DejaVuSans-72" x="476.359375" />
            <use xlink:href="#DejaVuSans-6e" x="515.722656" />
          </g>
        </g>
      </g>
      <g id="text_22">
        <g clip-path="url(#p56b26ccaac)">
          <!-- Union (1991) -->
          <g transform="translate(299.51564 391.044443) scale(0.1 -0.1)">
            <defs>
              <path id="DejaVuSans-55" d="M 556 4666 
L 1191 4666 
L 1191 1831 
Q 1191 1081 1462 751 
Q 1734 422 2344 422 
Q 2950 422 3222 751 
Q 3494 1081 3494 1831 
L 3494 4666 
L 4128 4666 
L 4128 1753 
Q 4128 841 3676 375 
Q 3225 -91 2344 -91 
Q 1459 -91 1007 375 
Q 556 841 556 1753 
L 556 4666 
z
" transform="scale(0.015625)" />
              <path id="DejaVuSans-28" d="M 1984 4856 
Q 1566 4138 1362 3434 
Q 1159 2731 1159 2009 
Q 1159 1288 1364 580 
Q 1569 -128 1984 -844 
L 1484 -844 
Q 1016 -109 783 600 
Q 550 1309 550 2009 
Q 550 2706 781 3412 
Q 1013 4119 1484 4856 
L 1984 4856 
z
" transform="scale(0.015625)" />
              <path id="DejaVuSans-31" d="M 794 531 
L 1825 531 
L 1825 4091 
L 703 3866 
L 703 4441 
L 1819 4666 
L 2450 4666 
L 2450 531 
L 3481 531 
L 3481 0 
L 794 0 
L 794 531 
z
" transform="scale(0.015625)" />
              <path id="DejaVuSans-39" d="M 703 97 
L 703 672 
Q 941 559 1184 500 
Q 1428 441 1663 441 
Q 2288 441 2617 861 
Q 2947 1281 2994 2138 
Q 2813 1869 2534 1725 
Q 2256 1581 1919 1581 
Q 1219 1581 811 2004 
Q 403 2428 403 3163 
Q 403 3881 828 4315 
Q 1253 4750 1959 4750 
Q 2769 4750 3195 4129 
Q 3622 3509 3622 2328 
Q 3622 1225 3098 567 
Q 2575 -91 1691 -91 
Q 1453 -91 1209 -44 
Q 966 3 703 97 
z
M 1959 2075 
Q 2384 2075 2632 2365 
Q 2881 2656 2881 3163 
Q 2881 3666 2632 3958 
Q 2384 4250 1959 4250 
Q 1534 4250 1286 3958 
Q 1038 3666 1038 3163 
Q 1038 2656 1286 2365 
Q 1534 2075 1959 2075 
z
" transform="scale(0.015625)" />
              <path id="DejaVuSans-29" d="M 513 4856 
L 1013 4856 
Q 1481 4119 1714 3412 
Q 1947 2706 1947 2009 
Q 1947 1309 1714 600 
Q 1481 -109 1013 -844 
L 513 -844 
Q 928 -128 1133 580 
Q 1338 1288 1338 2009 
Q 1338 2731 1133 3434 
Q 928 4138 513 4856 
z
" transform="scale(0.015625)" />
            </defs>
            <use xlink:href="#DejaVuSans-55" />
            <use xlink:href="#DejaVuSans-6e" x="73.193359" />
            <use xlink:href="#DejaVuSans-69" x="136.572266" />
            <use xlink:href="#DejaVuSans-6f" x="164.355469" />
            <use xlink:href="#DejaVuSans-6e" x="225.537109" />
            <use xlink:href="#DejaVuSans-20" x="288.916016" />
            <use xlink:href="#DejaVuSans-28" x="320.703125" />
            <use xlink:href="#DejaVuSans-31" x="359.716797" />
            <use xlink:href="#DejaVuSans-39" x="423.339844" />
            <use xlink:href="#DejaVuSans-39" x="486.962891" />
            <use xlink:href="#DejaVuSans-31" x="550.585938" />
            <use xlink:href="#DejaVuSans-29" x="614.208984" />
          </g>
        </g>
      </g>
      <g id="text_23">
        <!-- Internal Dynamics of Yes (Diagram) -->
        <g style="fill: #333333" transform="translate(218.33125 23.04) scale(0.16 -0.16)">
          <defs>
            <path id="DejaVuSans-49" d="M 628 4666 
L 1259 4666 
L 1259 0 
L 628 0 
L 628 4666 
z
" transform="scale(0.015625)" />
            <path id="DejaVuSans-59" d="M -13 4666 
L 666 4666 
L 1959 2747 
L 3244 4666 
L 3922 4666 
L 2272 2222 
L 2272 0 
L 1638 0 
L 1638 2222 
L -13 4666 
z
" transform="scale(0.015625)" />
          </defs>
          <use xlink:href="#DejaVuSans-49" />
          <use xlink:href="#DejaVuSans-6e" x="29.492188" />
          <use xlink:href="#DejaVuSans-74" x="92.871094" />
          <use xlink:href="#DejaVuSans-65" x="132.080078" />
          <use xlink:href="#DejaVuSans-72" x="193.603516" />
          <use xlink:href="#DejaVuSans-6e" x="232.966797" />
          <use xlink:href="#DejaVuSans-61" x="296.345703" />
          <use xlink:href="#DejaVuSans-6c" x="357.625" />
          <use xlink:href="#DejaVuSans-20" x="385.408203" />
          <use xlink:href="#DejaVuSans-44" x="417.195312" />
          <use xlink:href="#DejaVuSans-79" x="494.197266" />
          <use xlink:href="#DejaVuSans-6e" x="553.376953" />
          <use xlink:href="#DejaVuSans-61" x="616.755859" />
          <use xlink:href="#DejaVuSans-6d" x="678.035156" />
          <use xlink:href="#DejaVuSans-69" x="775.447266" />
          <use xlink:href="#DejaVuSans-63" x="803.230469" />
          <use xlink:href="#DejaVuSans-73" x="858.210938" />
          <use xlink:href="#DejaVuSans-20" x="910.310547" />
          <use xlink:href="#DejaVuSans-6f" x="942.097656" />
          <use xlink:href="#DejaVuSans-66" x="1003.279297" />
          <use xlink:href="#DejaVuSans-20" x="1038.484375" />
          <use xlink:href="#DejaVuSans-59" x="1070.271484" />
          <use xlink:href="#DejaVuSans-65" x="1118.105469" />
          <use xlink:href="#DejaVuSans-73" x="1179.628906" />
          <use xlink:href="#DejaVuSans-20" x="1231.728516" />
          <use xlink:href="#DejaVuSans-28" x="1263.515625" />
          <use xlink:href="#DejaVuSans-44" x="1302.529297" />
          <use xlink:href="#DejaVuSans-69" x="1379.53125" />
          <use xlink:href="#DejaVuSans-61" x="1407.314453" />
          <use xlink:href="#DejaVuSans-67" x="1468.59375" />
          <use xlink:href="#DejaVuSans-72" x="1532.070312" />
          <use xlink:href="#DejaVuSans-61" x="1573.183594" />
          <use xlink:href="#DejaVuSans-6d" x="1634.462891" />
          <use xlink:href="#DejaVuSans-29" x="1731.875" />
        </g>
      </g>
    </g>
  </g>
  <defs>
    <clipPath id="p56b26ccaac">
      <rect x="10.8" y="29.04" width="698.4" height="536.16" />
    </clipPath>
  </defs>
</svg>